%
M48
M72
T01C0.00984
T02C0.01181
T03C0.01378
T04C0.01575
T05C0.01772
T06C0.03937
T07C0.04000
T08C0.09350
T09C0.12600
%
T01
X231500Y274000
X247000Y301000
X235000Y307000
X275400Y316600
X282208Y320308
X284500Y317000
X286792Y319500
X289000Y332000
X303000Y330000
X315000Y323000
X322400Y334519
X325550Y333150
X327963Y336937
X330215Y334685
X333850Y334650
X337000Y340500
X336784Y344000
X333600Y344006
X340308Y329500
X348000Y334000
X351500Y332500
X348805Y327808
X350500Y325000
X362600Y324200
X374000Y326635
X371165Y336145
X362400Y344200
X352000Y357500
X348816Y357500
X347000Y363800
X346450Y370715
X354479Y375721
X359000Y377000
X363545Y371070
X378500Y377500
X382000Y377500
X385500Y377500
X418500Y394500
X428000Y409000
X425498Y411002
X440500Y419500
X439500Y399000
X421500Y340000
X419498Y337498
X410000Y333500
X406000Y333500
X402000Y333500
X402000Y344000
X406000Y344000
X410000Y344000
X404820Y313285
X401010Y313285
X369000Y294184
X369000Y291000
X371000Y277000
X378365Y276500
X378809Y279684
X378500Y265000
X344500Y266500
X322000Y275500
X323192Y281292
X324000Y284500
X328000Y285184
X332500Y294308
X340220Y302320
X342500Y297500
X345684Y297500
X349000Y298500
X339108Y309857
X329500Y326792
X316631Y307000
X313000Y303500
X309000Y303500
X305000Y303500
X302000Y306000
X286792Y298392
X279000Y297000
X275508Y325008
X280600Y351800
X288800Y352400
X288615Y355584
X290600Y363800
X294918Y372192
X292667Y374444
X303600Y368800
X303708Y365234
X303592Y362050
X303792Y354400
X301500Y351600
X305500Y348500
X314600Y363008
X317000Y365200
X315033Y370671
X312000Y369200
X323000Y387000
X318211Y391419
X323900Y396400
X328121Y406879
X333000Y409500
X333700Y414885
X351480Y418695
X373500Y417000
X352525Y396475
X332800Y365200
X290000Y387500
X284000Y376635
X281200Y372800
X278800Y375200
X285260Y401500
X285260Y408500
X285500Y421000
X236000Y386900
X253690Y357100
X313000Y256500
X425000Y276500
X425000Y280500
X425140Y284710
T02
X345689Y324111
X252800Y329800
X252800Y366800
T03
X330600Y370600
X334200Y400800
X373884Y361910
X386200Y349000
X412260Y312000
X329000Y301200
T04
X390850Y303760
X441015Y339320
X442513Y362815
X407200Y359200
X406200Y380600
X260675Y240487
T05
X276800Y344814
X300200Y391400
X417200Y370600
X421600Y345000
T06
X361822Y306581
X365822Y276581
X357822Y276581
T07
X328000Y261000
X328000Y251000
X318000Y251000
X318000Y261000
X308000Y261000
X308000Y251000
X298000Y251000
X298000Y261000
X270500Y262000
X270500Y252000
X260500Y252000
X260500Y262000
X260500Y272000
X260500Y282000
X270500Y282000
X270500Y272000
X270500Y292000
X270500Y302000
X260500Y302000
X260500Y292000
X260500Y312000
X260500Y322000
X260500Y332000
X270500Y332000
X270500Y322000
X270500Y312000
X270500Y342000
X270500Y352000
X260500Y352000
X260500Y342000
X260500Y362000
X260500Y372000
X270500Y372000
X270500Y362000
X270500Y382000
X270500Y392000
X260500Y392000
X260500Y382000
X260500Y402000
X260500Y412000
X270500Y412000
X270500Y402000
X270500Y422000
X270500Y432000
X260500Y432000
X260500Y422000
X260500Y442000
X270500Y442000
X298000Y442000
X298000Y432000
X308000Y432000
X318000Y432000
X318000Y442000
X308000Y442000
X328000Y442000
X328000Y432000
X395000Y432000
X395000Y442000
X405000Y442000
X415000Y442000
X415000Y432000
X405000Y432000
X425000Y432000
X425000Y442000
X425000Y261000
X425000Y251000
X415000Y251000
X415000Y261000
X405000Y261000
X405000Y251000
X395000Y251000
X395000Y261000
T08
X371822Y284081
X351822Y284081
X351822Y306581
X371822Y306581
T09
X240000Y250000
X362000Y250000
X362000Y443000
X240000Y443000
M30
