G75*
%MOIN*%
%OFA0B0*%
%FSLAX25Y25*%
%IPPOS*%
%LPD*%
%AMOC8*
5,1,8,0,0,1.08239X$1,22.5*
%
%ADD10C,0.00400*%
%ADD11C,0.00800*%
D10*
X0284335Y0361925D02*
X0285613Y0361925D01*
X0285668Y0361927D01*
X0285722Y0361933D01*
X0285776Y0361943D01*
X0285829Y0361956D01*
X0285881Y0361973D01*
X0285932Y0361994D01*
X0285981Y0362019D01*
X0286028Y0362047D01*
X0286073Y0362078D01*
X0286115Y0362112D01*
X0286155Y0362150D01*
X0286193Y0362190D01*
X0286227Y0362232D01*
X0286258Y0362277D01*
X0286286Y0362324D01*
X0286311Y0362373D01*
X0286332Y0362424D01*
X0286349Y0362476D01*
X0286362Y0362529D01*
X0286372Y0362583D01*
X0286378Y0362637D01*
X0286380Y0362692D01*
X0286380Y0363969D01*
X0286380Y0363458D02*
X0284335Y0363458D01*
X0284335Y0363969D01*
X0284337Y0364032D01*
X0284343Y0364095D01*
X0284352Y0364157D01*
X0284366Y0364218D01*
X0284383Y0364279D01*
X0284404Y0364338D01*
X0284429Y0364396D01*
X0284457Y0364453D01*
X0284488Y0364507D01*
X0284523Y0364559D01*
X0284561Y0364610D01*
X0284602Y0364658D01*
X0284646Y0364703D01*
X0284692Y0364745D01*
X0284741Y0364785D01*
X0284792Y0364821D01*
X0284846Y0364854D01*
X0284901Y0364884D01*
X0284959Y0364910D01*
X0285017Y0364933D01*
X0285077Y0364952D01*
X0285138Y0364967D01*
X0285200Y0364979D01*
X0285263Y0364987D01*
X0285326Y0364991D01*
X0285388Y0364991D01*
X0285451Y0364987D01*
X0285514Y0364979D01*
X0285576Y0364967D01*
X0285637Y0364952D01*
X0285697Y0364933D01*
X0285755Y0364910D01*
X0285813Y0364884D01*
X0285868Y0364854D01*
X0285922Y0364821D01*
X0285973Y0364785D01*
X0286022Y0364745D01*
X0286068Y0364703D01*
X0286112Y0364658D01*
X0286153Y0364610D01*
X0286191Y0364559D01*
X0286226Y0364507D01*
X0286257Y0364453D01*
X0286285Y0364396D01*
X0286310Y0364338D01*
X0286331Y0364279D01*
X0286348Y0364218D01*
X0286362Y0364157D01*
X0286371Y0364095D01*
X0286377Y0364032D01*
X0286379Y0363969D01*
X0288474Y0364225D02*
X0288474Y0361925D01*
X0290007Y0361925D02*
X0290007Y0364992D01*
X0289241Y0364992D02*
X0291541Y0364992D01*
X0291541Y0361925D01*
X0293808Y0361925D02*
X0293808Y0364225D01*
X0293808Y0363714D02*
X0294958Y0363714D01*
X0293808Y0364225D02*
X0293810Y0364277D01*
X0293815Y0364329D01*
X0293824Y0364381D01*
X0293836Y0364432D01*
X0293852Y0364482D01*
X0293872Y0364531D01*
X0293894Y0364578D01*
X0293920Y0364624D01*
X0293948Y0364667D01*
X0293980Y0364709D01*
X0294014Y0364749D01*
X0294051Y0364786D01*
X0294091Y0364820D01*
X0294133Y0364852D01*
X0294176Y0364880D01*
X0294222Y0364906D01*
X0294269Y0364929D01*
X0294318Y0364948D01*
X0294368Y0364964D01*
X0294419Y0364976D01*
X0294471Y0364985D01*
X0294523Y0364990D01*
X0294575Y0364992D01*
X0295597Y0364992D01*
X0294958Y0363713D02*
X0295016Y0363711D01*
X0295075Y0363705D01*
X0295132Y0363696D01*
X0295189Y0363683D01*
X0295245Y0363666D01*
X0295300Y0363645D01*
X0295353Y0363621D01*
X0295405Y0363593D01*
X0295455Y0363562D01*
X0295502Y0363528D01*
X0295547Y0363491D01*
X0295590Y0363451D01*
X0295630Y0363408D01*
X0295667Y0363363D01*
X0295701Y0363316D01*
X0295732Y0363266D01*
X0295760Y0363214D01*
X0295784Y0363161D01*
X0295805Y0363106D01*
X0295822Y0363050D01*
X0295835Y0362993D01*
X0295844Y0362936D01*
X0295850Y0362877D01*
X0295852Y0362819D01*
X0295850Y0362761D01*
X0295844Y0362702D01*
X0295835Y0362645D01*
X0295822Y0362588D01*
X0295805Y0362532D01*
X0295784Y0362477D01*
X0295760Y0362424D01*
X0295732Y0362372D01*
X0295701Y0362322D01*
X0295667Y0362275D01*
X0295630Y0362230D01*
X0295590Y0362187D01*
X0295547Y0362147D01*
X0295502Y0362110D01*
X0295455Y0362076D01*
X0295405Y0362045D01*
X0295353Y0362017D01*
X0295300Y0361993D01*
X0295245Y0361972D01*
X0295189Y0361955D01*
X0295132Y0361942D01*
X0295075Y0361933D01*
X0295016Y0361927D01*
X0294958Y0361925D01*
X0293808Y0361925D01*
X0298068Y0363203D02*
X0299346Y0363714D01*
X0299346Y0363713D02*
X0299393Y0363734D01*
X0299438Y0363759D01*
X0299481Y0363786D01*
X0299521Y0363817D01*
X0299560Y0363851D01*
X0299595Y0363888D01*
X0299628Y0363927D01*
X0299657Y0363969D01*
X0299683Y0364013D01*
X0299706Y0364059D01*
X0299725Y0364106D01*
X0299740Y0364155D01*
X0299751Y0364205D01*
X0299759Y0364256D01*
X0299763Y0364307D01*
X0299762Y0364358D01*
X0299758Y0364409D01*
X0299750Y0364459D01*
X0299738Y0364509D01*
X0299722Y0364557D01*
X0299703Y0364605D01*
X0299680Y0364650D01*
X0299654Y0364694D01*
X0299624Y0364735D01*
X0299591Y0364775D01*
X0299555Y0364811D01*
X0299517Y0364845D01*
X0299476Y0364875D01*
X0299433Y0364903D01*
X0299387Y0364926D01*
X0299340Y0364947D01*
X0299292Y0364964D01*
X0299243Y0364976D01*
X0299192Y0364986D01*
X0299142Y0364991D01*
X0299091Y0364992D01*
X0299729Y0362181D02*
X0299606Y0362139D01*
X0299481Y0362100D01*
X0299356Y0362065D01*
X0299229Y0362034D01*
X0299101Y0362007D01*
X0298973Y0361984D01*
X0298844Y0361964D01*
X0298714Y0361949D01*
X0298585Y0361937D01*
X0298454Y0361929D01*
X0298324Y0361925D01*
X0298273Y0361926D01*
X0298223Y0361931D01*
X0298172Y0361941D01*
X0298123Y0361953D01*
X0298075Y0361970D01*
X0298028Y0361991D01*
X0297982Y0362014D01*
X0297939Y0362042D01*
X0297898Y0362072D01*
X0297860Y0362106D01*
X0297824Y0362142D01*
X0297791Y0362182D01*
X0297761Y0362223D01*
X0297735Y0362267D01*
X0297712Y0362312D01*
X0297693Y0362360D01*
X0297677Y0362408D01*
X0297665Y0362458D01*
X0297657Y0362508D01*
X0297653Y0362559D01*
X0297652Y0362610D01*
X0297656Y0362661D01*
X0297664Y0362712D01*
X0297675Y0362762D01*
X0297690Y0362811D01*
X0297709Y0362858D01*
X0297732Y0362904D01*
X0297758Y0362948D01*
X0297787Y0362990D01*
X0297820Y0363029D01*
X0297855Y0363066D01*
X0297894Y0363100D01*
X0297934Y0363131D01*
X0297977Y0363158D01*
X0298022Y0363183D01*
X0298069Y0363204D01*
X0297941Y0364736D02*
X0298031Y0364775D01*
X0298124Y0364811D01*
X0298217Y0364844D01*
X0298311Y0364873D01*
X0298406Y0364900D01*
X0298502Y0364923D01*
X0298599Y0364943D01*
X0298697Y0364959D01*
X0298795Y0364972D01*
X0298893Y0364982D01*
X0298992Y0364989D01*
X0299091Y0364992D01*
X0299482Y0369425D02*
X0298460Y0369425D01*
X0299482Y0369425D02*
X0299537Y0369427D01*
X0299591Y0369433D01*
X0299645Y0369443D01*
X0299698Y0369456D01*
X0299750Y0369473D01*
X0299801Y0369494D01*
X0299850Y0369519D01*
X0299897Y0369547D01*
X0299942Y0369578D01*
X0299984Y0369612D01*
X0300024Y0369650D01*
X0300062Y0369690D01*
X0300096Y0369732D01*
X0300127Y0369777D01*
X0300155Y0369824D01*
X0300180Y0369873D01*
X0300201Y0369924D01*
X0300218Y0369976D01*
X0300231Y0370029D01*
X0300241Y0370083D01*
X0300247Y0370137D01*
X0300249Y0370192D01*
X0300249Y0371725D01*
X0300247Y0371780D01*
X0300241Y0371834D01*
X0300231Y0371888D01*
X0300218Y0371941D01*
X0300201Y0371993D01*
X0300180Y0372044D01*
X0300155Y0372093D01*
X0300127Y0372140D01*
X0300096Y0372185D01*
X0300062Y0372227D01*
X0300024Y0372267D01*
X0299984Y0372305D01*
X0299942Y0372339D01*
X0299897Y0372370D01*
X0299850Y0372398D01*
X0299801Y0372423D01*
X0299750Y0372444D01*
X0299698Y0372461D01*
X0299645Y0372474D01*
X0299591Y0372484D01*
X0299537Y0372490D01*
X0299482Y0372492D01*
X0298460Y0372492D01*
X0296572Y0372492D02*
X0295550Y0372492D01*
X0295498Y0372490D01*
X0295446Y0372485D01*
X0295394Y0372476D01*
X0295343Y0372464D01*
X0295293Y0372448D01*
X0295244Y0372429D01*
X0295197Y0372406D01*
X0295151Y0372380D01*
X0295108Y0372352D01*
X0295066Y0372320D01*
X0295026Y0372286D01*
X0294989Y0372249D01*
X0294955Y0372209D01*
X0294923Y0372167D01*
X0294895Y0372124D01*
X0294869Y0372078D01*
X0294847Y0372031D01*
X0294827Y0371982D01*
X0294811Y0371932D01*
X0294799Y0371881D01*
X0294790Y0371829D01*
X0294785Y0371777D01*
X0294783Y0371725D01*
X0294783Y0369425D01*
X0295933Y0369425D01*
X0295991Y0369427D01*
X0296050Y0369433D01*
X0296107Y0369442D01*
X0296164Y0369455D01*
X0296220Y0369472D01*
X0296275Y0369493D01*
X0296328Y0369517D01*
X0296380Y0369545D01*
X0296430Y0369576D01*
X0296477Y0369610D01*
X0296522Y0369647D01*
X0296565Y0369687D01*
X0296605Y0369730D01*
X0296642Y0369775D01*
X0296676Y0369822D01*
X0296707Y0369872D01*
X0296735Y0369924D01*
X0296759Y0369977D01*
X0296780Y0370032D01*
X0296797Y0370088D01*
X0296810Y0370145D01*
X0296819Y0370202D01*
X0296825Y0370261D01*
X0296827Y0370319D01*
X0296825Y0370377D01*
X0296819Y0370436D01*
X0296810Y0370493D01*
X0296797Y0370550D01*
X0296780Y0370606D01*
X0296759Y0370661D01*
X0296735Y0370714D01*
X0296707Y0370766D01*
X0296676Y0370816D01*
X0296642Y0370863D01*
X0296605Y0370908D01*
X0296565Y0370951D01*
X0296522Y0370991D01*
X0296477Y0371028D01*
X0296430Y0371062D01*
X0296380Y0371093D01*
X0296328Y0371121D01*
X0296275Y0371145D01*
X0296220Y0371166D01*
X0296164Y0371183D01*
X0296107Y0371196D01*
X0296050Y0371205D01*
X0295991Y0371211D01*
X0295933Y0371213D01*
X0295933Y0371214D02*
X0294783Y0371214D01*
X0293135Y0372492D02*
X0291602Y0372492D01*
X0292624Y0374025D02*
X0292624Y0370192D01*
X0292622Y0370137D01*
X0292616Y0370083D01*
X0292606Y0370029D01*
X0292593Y0369976D01*
X0292576Y0369924D01*
X0292555Y0369873D01*
X0292530Y0369824D01*
X0292502Y0369777D01*
X0292471Y0369732D01*
X0292437Y0369690D01*
X0292399Y0369650D01*
X0292359Y0369612D01*
X0292317Y0369578D01*
X0292272Y0369547D01*
X0292225Y0369519D01*
X0292176Y0369494D01*
X0292125Y0369473D01*
X0292073Y0369456D01*
X0292020Y0369443D01*
X0291966Y0369433D01*
X0291912Y0369427D01*
X0291857Y0369425D01*
X0291602Y0369425D01*
X0289241Y0364992D02*
X0289186Y0364990D01*
X0289132Y0364984D01*
X0289078Y0364974D01*
X0289025Y0364961D01*
X0288973Y0364944D01*
X0288922Y0364923D01*
X0288873Y0364898D01*
X0288826Y0364870D01*
X0288781Y0364839D01*
X0288739Y0364805D01*
X0288699Y0364767D01*
X0288661Y0364727D01*
X0288627Y0364685D01*
X0288596Y0364640D01*
X0288568Y0364593D01*
X0288543Y0364544D01*
X0288522Y0364493D01*
X0288505Y0364441D01*
X0288492Y0364388D01*
X0288482Y0364334D01*
X0288476Y0364280D01*
X0288474Y0364225D01*
X0303985Y0363969D02*
X0303985Y0363458D01*
X0306030Y0363458D01*
X0306030Y0363969D02*
X0306030Y0362692D01*
X0306028Y0362637D01*
X0306022Y0362583D01*
X0306012Y0362529D01*
X0305999Y0362476D01*
X0305982Y0362424D01*
X0305961Y0362373D01*
X0305936Y0362324D01*
X0305908Y0362277D01*
X0305877Y0362232D01*
X0305843Y0362190D01*
X0305805Y0362150D01*
X0305765Y0362112D01*
X0305723Y0362078D01*
X0305678Y0362047D01*
X0305631Y0362019D01*
X0305582Y0361994D01*
X0305531Y0361973D01*
X0305479Y0361956D01*
X0305426Y0361943D01*
X0305372Y0361933D01*
X0305318Y0361927D01*
X0305263Y0361925D01*
X0303985Y0361925D01*
X0303985Y0363969D02*
X0303987Y0364032D01*
X0303993Y0364095D01*
X0304002Y0364157D01*
X0304016Y0364218D01*
X0304033Y0364279D01*
X0304054Y0364338D01*
X0304079Y0364396D01*
X0304107Y0364453D01*
X0304138Y0364507D01*
X0304173Y0364559D01*
X0304211Y0364610D01*
X0304252Y0364658D01*
X0304296Y0364703D01*
X0304342Y0364745D01*
X0304391Y0364785D01*
X0304442Y0364821D01*
X0304496Y0364854D01*
X0304551Y0364884D01*
X0304609Y0364910D01*
X0304667Y0364933D01*
X0304727Y0364952D01*
X0304788Y0364967D01*
X0304850Y0364979D01*
X0304913Y0364987D01*
X0304976Y0364991D01*
X0305038Y0364991D01*
X0305101Y0364987D01*
X0305164Y0364979D01*
X0305226Y0364967D01*
X0305287Y0364952D01*
X0305347Y0364933D01*
X0305405Y0364910D01*
X0305463Y0364884D01*
X0305518Y0364854D01*
X0305572Y0364821D01*
X0305623Y0364785D01*
X0305672Y0364745D01*
X0305718Y0364703D01*
X0305762Y0364658D01*
X0305803Y0364610D01*
X0305841Y0364559D01*
X0305876Y0364507D01*
X0305907Y0364453D01*
X0305935Y0364396D01*
X0305960Y0364338D01*
X0305981Y0364279D01*
X0305998Y0364218D01*
X0306012Y0364157D01*
X0306021Y0364095D01*
X0306027Y0364032D01*
X0306029Y0363969D01*
X0308035Y0364225D02*
X0308035Y0361925D01*
X0310080Y0361925D02*
X0310080Y0366525D01*
X0310080Y0364992D02*
X0308802Y0364992D01*
X0308747Y0364990D01*
X0308693Y0364984D01*
X0308639Y0364974D01*
X0308586Y0364961D01*
X0308534Y0364944D01*
X0308483Y0364923D01*
X0308434Y0364898D01*
X0308387Y0364870D01*
X0308342Y0364839D01*
X0308300Y0364805D01*
X0308260Y0364767D01*
X0308222Y0364727D01*
X0308188Y0364685D01*
X0308157Y0364640D01*
X0308129Y0364593D01*
X0308104Y0364544D01*
X0308083Y0364493D01*
X0308066Y0364441D01*
X0308053Y0364388D01*
X0308043Y0364334D01*
X0308037Y0364280D01*
X0308035Y0364225D01*
X0311927Y0364992D02*
X0313460Y0364992D01*
X0312949Y0366525D02*
X0312949Y0362692D01*
X0312950Y0362692D02*
X0312948Y0362637D01*
X0312942Y0362583D01*
X0312932Y0362529D01*
X0312919Y0362476D01*
X0312902Y0362424D01*
X0312881Y0362373D01*
X0312856Y0362324D01*
X0312828Y0362277D01*
X0312797Y0362232D01*
X0312763Y0362190D01*
X0312725Y0362150D01*
X0312685Y0362112D01*
X0312643Y0362078D01*
X0312598Y0362047D01*
X0312551Y0362019D01*
X0312502Y0361994D01*
X0312451Y0361973D01*
X0312399Y0361956D01*
X0312346Y0361943D01*
X0312292Y0361933D01*
X0312238Y0361927D01*
X0312183Y0361925D01*
X0311927Y0361925D01*
X0317185Y0364992D02*
X0318718Y0360392D01*
X0319230Y0360392D01*
X0318207Y0361925D02*
X0319230Y0364992D01*
X0321421Y0366525D02*
X0321421Y0362692D01*
X0321419Y0362637D01*
X0321413Y0362583D01*
X0321403Y0362529D01*
X0321390Y0362476D01*
X0321373Y0362424D01*
X0321352Y0362373D01*
X0321327Y0362324D01*
X0321299Y0362277D01*
X0321268Y0362232D01*
X0321234Y0362190D01*
X0321196Y0362150D01*
X0321156Y0362112D01*
X0321114Y0362078D01*
X0321069Y0362047D01*
X0321022Y0362019D01*
X0320973Y0361994D01*
X0320922Y0361973D01*
X0320870Y0361956D01*
X0320817Y0361943D01*
X0320763Y0361933D01*
X0320709Y0361927D01*
X0320654Y0361925D01*
X0323312Y0362692D02*
X0323312Y0364225D01*
X0323314Y0364277D01*
X0323319Y0364329D01*
X0323328Y0364381D01*
X0323340Y0364432D01*
X0323356Y0364482D01*
X0323376Y0364531D01*
X0323398Y0364578D01*
X0323424Y0364624D01*
X0323452Y0364667D01*
X0323484Y0364709D01*
X0323518Y0364749D01*
X0323555Y0364786D01*
X0323595Y0364820D01*
X0323637Y0364852D01*
X0323680Y0364880D01*
X0323726Y0364906D01*
X0323773Y0364929D01*
X0323822Y0364948D01*
X0323872Y0364964D01*
X0323923Y0364976D01*
X0323975Y0364985D01*
X0324027Y0364990D01*
X0324079Y0364992D01*
X0325356Y0364992D01*
X0325356Y0366525D02*
X0325356Y0361925D01*
X0324079Y0361925D01*
X0324024Y0361927D01*
X0323970Y0361933D01*
X0323916Y0361943D01*
X0323863Y0361956D01*
X0323811Y0361973D01*
X0323760Y0361994D01*
X0323711Y0362019D01*
X0323664Y0362047D01*
X0323619Y0362078D01*
X0323577Y0362112D01*
X0323537Y0362150D01*
X0323499Y0362190D01*
X0323465Y0362232D01*
X0323434Y0362277D01*
X0323406Y0362324D01*
X0323381Y0362373D01*
X0323360Y0362424D01*
X0323343Y0362476D01*
X0323330Y0362529D01*
X0323320Y0362583D01*
X0323314Y0362637D01*
X0323312Y0362692D01*
X0327558Y0361925D02*
X0327558Y0364225D01*
X0327558Y0363714D02*
X0328708Y0363714D01*
X0327558Y0364225D02*
X0327560Y0364277D01*
X0327565Y0364329D01*
X0327574Y0364381D01*
X0327586Y0364432D01*
X0327602Y0364482D01*
X0327622Y0364531D01*
X0327644Y0364578D01*
X0327670Y0364624D01*
X0327698Y0364667D01*
X0327730Y0364709D01*
X0327764Y0364749D01*
X0327801Y0364786D01*
X0327841Y0364820D01*
X0327883Y0364852D01*
X0327926Y0364880D01*
X0327972Y0364906D01*
X0328019Y0364929D01*
X0328068Y0364948D01*
X0328118Y0364964D01*
X0328169Y0364976D01*
X0328221Y0364985D01*
X0328273Y0364990D01*
X0328325Y0364992D01*
X0329347Y0364992D01*
X0331020Y0364992D02*
X0331020Y0364481D01*
X0331020Y0364992D02*
X0332553Y0364992D01*
X0332553Y0361925D01*
X0334585Y0361925D02*
X0335863Y0361925D01*
X0335918Y0361927D01*
X0335972Y0361933D01*
X0336026Y0361943D01*
X0336079Y0361956D01*
X0336131Y0361973D01*
X0336182Y0361994D01*
X0336231Y0362019D01*
X0336278Y0362047D01*
X0336323Y0362078D01*
X0336365Y0362112D01*
X0336405Y0362150D01*
X0336443Y0362190D01*
X0336477Y0362232D01*
X0336508Y0362277D01*
X0336536Y0362324D01*
X0336561Y0362373D01*
X0336582Y0362424D01*
X0336599Y0362476D01*
X0336612Y0362529D01*
X0336622Y0362583D01*
X0336628Y0362637D01*
X0336630Y0362692D01*
X0336630Y0363969D01*
X0336630Y0363458D02*
X0334585Y0363458D01*
X0334585Y0363969D01*
X0334587Y0364032D01*
X0334593Y0364095D01*
X0334602Y0364157D01*
X0334616Y0364218D01*
X0334633Y0364279D01*
X0334654Y0364338D01*
X0334679Y0364396D01*
X0334707Y0364453D01*
X0334738Y0364507D01*
X0334773Y0364559D01*
X0334811Y0364610D01*
X0334852Y0364658D01*
X0334896Y0364703D01*
X0334942Y0364745D01*
X0334991Y0364785D01*
X0335042Y0364821D01*
X0335096Y0364854D01*
X0335151Y0364884D01*
X0335209Y0364910D01*
X0335267Y0364933D01*
X0335327Y0364952D01*
X0335388Y0364967D01*
X0335450Y0364979D01*
X0335513Y0364987D01*
X0335576Y0364991D01*
X0335638Y0364991D01*
X0335701Y0364987D01*
X0335764Y0364979D01*
X0335826Y0364967D01*
X0335887Y0364952D01*
X0335947Y0364933D01*
X0336005Y0364910D01*
X0336063Y0364884D01*
X0336118Y0364854D01*
X0336172Y0364821D01*
X0336223Y0364785D01*
X0336272Y0364745D01*
X0336318Y0364703D01*
X0336362Y0364658D01*
X0336403Y0364610D01*
X0336441Y0364559D01*
X0336476Y0364507D01*
X0336507Y0364453D01*
X0336535Y0364396D01*
X0336560Y0364338D01*
X0336581Y0364279D01*
X0336598Y0364218D01*
X0336612Y0364157D01*
X0336621Y0364095D01*
X0336627Y0364032D01*
X0336629Y0363969D01*
X0337911Y0364992D02*
X0339444Y0364992D01*
X0338933Y0365758D02*
X0338933Y0361925D01*
X0341035Y0361925D02*
X0342313Y0361925D01*
X0342368Y0361927D01*
X0342422Y0361933D01*
X0342476Y0361943D01*
X0342529Y0361956D01*
X0342581Y0361973D01*
X0342632Y0361994D01*
X0342681Y0362019D01*
X0342728Y0362047D01*
X0342773Y0362078D01*
X0342815Y0362112D01*
X0342855Y0362150D01*
X0342893Y0362190D01*
X0342927Y0362232D01*
X0342958Y0362277D01*
X0342986Y0362324D01*
X0343011Y0362373D01*
X0343032Y0362424D01*
X0343049Y0362476D01*
X0343062Y0362529D01*
X0343072Y0362583D01*
X0343078Y0362637D01*
X0343080Y0362692D01*
X0343080Y0363969D01*
X0343080Y0363458D02*
X0341035Y0363458D01*
X0341035Y0363969D01*
X0341037Y0364032D01*
X0341043Y0364095D01*
X0341052Y0364157D01*
X0341066Y0364218D01*
X0341083Y0364279D01*
X0341104Y0364338D01*
X0341129Y0364396D01*
X0341157Y0364453D01*
X0341188Y0364507D01*
X0341223Y0364559D01*
X0341261Y0364610D01*
X0341302Y0364658D01*
X0341346Y0364703D01*
X0341392Y0364745D01*
X0341441Y0364785D01*
X0341492Y0364821D01*
X0341546Y0364854D01*
X0341601Y0364884D01*
X0341659Y0364910D01*
X0341717Y0364933D01*
X0341777Y0364952D01*
X0341838Y0364967D01*
X0341900Y0364979D01*
X0341963Y0364987D01*
X0342026Y0364991D01*
X0342088Y0364991D01*
X0342151Y0364987D01*
X0342214Y0364979D01*
X0342276Y0364967D01*
X0342337Y0364952D01*
X0342397Y0364933D01*
X0342455Y0364910D01*
X0342513Y0364884D01*
X0342568Y0364854D01*
X0342622Y0364821D01*
X0342673Y0364785D01*
X0342722Y0364745D01*
X0342768Y0364703D01*
X0342812Y0364658D01*
X0342853Y0364610D01*
X0342891Y0364559D01*
X0342926Y0364507D01*
X0342957Y0364453D01*
X0342985Y0364396D01*
X0343010Y0364338D01*
X0343031Y0364279D01*
X0343048Y0364218D01*
X0343062Y0364157D01*
X0343071Y0364095D01*
X0343077Y0364032D01*
X0343079Y0363969D01*
X0344520Y0364481D02*
X0344520Y0364992D01*
X0346053Y0364992D01*
X0346053Y0361925D01*
X0348062Y0362692D02*
X0348062Y0364225D01*
X0348064Y0364280D01*
X0348070Y0364334D01*
X0348080Y0364388D01*
X0348093Y0364441D01*
X0348110Y0364493D01*
X0348131Y0364544D01*
X0348156Y0364593D01*
X0348184Y0364640D01*
X0348215Y0364685D01*
X0348249Y0364727D01*
X0348287Y0364767D01*
X0348327Y0364805D01*
X0348369Y0364839D01*
X0348414Y0364870D01*
X0348461Y0364898D01*
X0348510Y0364923D01*
X0348561Y0364944D01*
X0348613Y0364961D01*
X0348666Y0364974D01*
X0348720Y0364984D01*
X0348774Y0364990D01*
X0348829Y0364992D01*
X0350106Y0364992D01*
X0350106Y0360392D01*
X0350106Y0361925D02*
X0348829Y0361925D01*
X0348777Y0361927D01*
X0348725Y0361932D01*
X0348673Y0361941D01*
X0348622Y0361953D01*
X0348572Y0361969D01*
X0348523Y0361988D01*
X0348476Y0362011D01*
X0348430Y0362037D01*
X0348387Y0362065D01*
X0348345Y0362097D01*
X0348305Y0362131D01*
X0348268Y0362168D01*
X0348234Y0362208D01*
X0348202Y0362250D01*
X0348174Y0362293D01*
X0348148Y0362339D01*
X0348126Y0362386D01*
X0348106Y0362435D01*
X0348090Y0362485D01*
X0348078Y0362536D01*
X0348069Y0362588D01*
X0348064Y0362640D01*
X0348062Y0362692D01*
X0354120Y0364481D02*
X0354120Y0364992D01*
X0355653Y0364992D01*
X0355653Y0361925D01*
X0357685Y0362947D02*
X0357685Y0363969D01*
X0357687Y0364032D01*
X0357693Y0364095D01*
X0357702Y0364157D01*
X0357716Y0364218D01*
X0357733Y0364279D01*
X0357754Y0364338D01*
X0357779Y0364396D01*
X0357807Y0364453D01*
X0357838Y0364507D01*
X0357873Y0364559D01*
X0357911Y0364610D01*
X0357952Y0364658D01*
X0357996Y0364703D01*
X0358042Y0364745D01*
X0358091Y0364785D01*
X0358142Y0364821D01*
X0358196Y0364854D01*
X0358251Y0364884D01*
X0358309Y0364910D01*
X0358367Y0364933D01*
X0358427Y0364952D01*
X0358488Y0364967D01*
X0358550Y0364979D01*
X0358613Y0364987D01*
X0358676Y0364991D01*
X0358738Y0364991D01*
X0358801Y0364987D01*
X0358864Y0364979D01*
X0358926Y0364967D01*
X0358987Y0364952D01*
X0359047Y0364933D01*
X0359105Y0364910D01*
X0359163Y0364884D01*
X0359218Y0364854D01*
X0359272Y0364821D01*
X0359323Y0364785D01*
X0359372Y0364745D01*
X0359418Y0364703D01*
X0359462Y0364658D01*
X0359503Y0364610D01*
X0359541Y0364559D01*
X0359576Y0364507D01*
X0359607Y0364453D01*
X0359635Y0364396D01*
X0359660Y0364338D01*
X0359681Y0364279D01*
X0359698Y0364218D01*
X0359712Y0364157D01*
X0359721Y0364095D01*
X0359727Y0364032D01*
X0359729Y0363969D01*
X0359729Y0362947D01*
X0359727Y0362884D01*
X0359721Y0362821D01*
X0359712Y0362759D01*
X0359698Y0362698D01*
X0359681Y0362637D01*
X0359660Y0362578D01*
X0359635Y0362520D01*
X0359607Y0362463D01*
X0359576Y0362409D01*
X0359541Y0362357D01*
X0359503Y0362306D01*
X0359462Y0362258D01*
X0359418Y0362213D01*
X0359372Y0362171D01*
X0359323Y0362131D01*
X0359272Y0362095D01*
X0359218Y0362062D01*
X0359163Y0362032D01*
X0359105Y0362006D01*
X0359047Y0361983D01*
X0358987Y0361964D01*
X0358926Y0361949D01*
X0358864Y0361937D01*
X0358801Y0361929D01*
X0358738Y0361925D01*
X0358676Y0361925D01*
X0358613Y0361929D01*
X0358550Y0361937D01*
X0358488Y0361949D01*
X0358427Y0361964D01*
X0358367Y0361983D01*
X0358309Y0362006D01*
X0358251Y0362032D01*
X0358196Y0362062D01*
X0358142Y0362095D01*
X0358091Y0362131D01*
X0358042Y0362171D01*
X0357996Y0362213D01*
X0357952Y0362258D01*
X0357911Y0362306D01*
X0357873Y0362357D01*
X0357838Y0362409D01*
X0357807Y0362463D01*
X0357779Y0362520D01*
X0357754Y0362578D01*
X0357733Y0362637D01*
X0357716Y0362698D01*
X0357702Y0362759D01*
X0357693Y0362821D01*
X0357687Y0362884D01*
X0357685Y0362947D01*
X0363846Y0362181D02*
X0363846Y0361925D01*
X0364230Y0360903D01*
X0364102Y0361925D02*
X0364102Y0362181D01*
X0363846Y0362181D01*
X0363846Y0361925D02*
X0364102Y0361925D01*
X0366903Y0361925D02*
X0366903Y0364992D01*
X0365370Y0364992D01*
X0365370Y0364481D01*
X0368935Y0363969D02*
X0368935Y0363458D01*
X0370979Y0363458D01*
X0370979Y0363969D02*
X0370979Y0362692D01*
X0370980Y0362692D02*
X0370978Y0362637D01*
X0370972Y0362583D01*
X0370962Y0362529D01*
X0370949Y0362476D01*
X0370932Y0362424D01*
X0370911Y0362373D01*
X0370886Y0362324D01*
X0370858Y0362277D01*
X0370827Y0362232D01*
X0370793Y0362190D01*
X0370755Y0362150D01*
X0370715Y0362112D01*
X0370673Y0362078D01*
X0370628Y0362047D01*
X0370581Y0362019D01*
X0370532Y0361994D01*
X0370481Y0361973D01*
X0370429Y0361956D01*
X0370376Y0361943D01*
X0370322Y0361933D01*
X0370268Y0361927D01*
X0370213Y0361925D01*
X0368935Y0361925D01*
X0368935Y0363969D02*
X0368937Y0364032D01*
X0368943Y0364095D01*
X0368952Y0364157D01*
X0368966Y0364218D01*
X0368983Y0364279D01*
X0369004Y0364338D01*
X0369029Y0364396D01*
X0369057Y0364453D01*
X0369088Y0364507D01*
X0369123Y0364559D01*
X0369161Y0364610D01*
X0369202Y0364658D01*
X0369246Y0364703D01*
X0369292Y0364745D01*
X0369341Y0364785D01*
X0369392Y0364821D01*
X0369446Y0364854D01*
X0369501Y0364884D01*
X0369559Y0364910D01*
X0369617Y0364933D01*
X0369677Y0364952D01*
X0369738Y0364967D01*
X0369800Y0364979D01*
X0369863Y0364987D01*
X0369926Y0364991D01*
X0369988Y0364991D01*
X0370051Y0364987D01*
X0370114Y0364979D01*
X0370176Y0364967D01*
X0370237Y0364952D01*
X0370297Y0364933D01*
X0370355Y0364910D01*
X0370413Y0364884D01*
X0370468Y0364854D01*
X0370522Y0364821D01*
X0370573Y0364785D01*
X0370622Y0364745D01*
X0370668Y0364703D01*
X0370712Y0364658D01*
X0370753Y0364610D01*
X0370791Y0364559D01*
X0370826Y0364507D01*
X0370857Y0364453D01*
X0370885Y0364396D01*
X0370910Y0364338D01*
X0370931Y0364279D01*
X0370948Y0364218D01*
X0370962Y0364157D01*
X0370971Y0364095D01*
X0370977Y0364032D01*
X0370979Y0363969D01*
X0372985Y0364225D02*
X0372985Y0361925D01*
X0375029Y0361925D02*
X0375029Y0366525D01*
X0375029Y0364992D02*
X0373752Y0364992D01*
X0373697Y0364990D01*
X0373643Y0364984D01*
X0373589Y0364974D01*
X0373536Y0364961D01*
X0373484Y0364944D01*
X0373433Y0364923D01*
X0373384Y0364898D01*
X0373337Y0364870D01*
X0373292Y0364839D01*
X0373250Y0364805D01*
X0373210Y0364767D01*
X0373172Y0364727D01*
X0373138Y0364685D01*
X0373107Y0364640D01*
X0373079Y0364593D01*
X0373054Y0364544D01*
X0373033Y0364493D01*
X0373016Y0364441D01*
X0373003Y0364388D01*
X0372993Y0364334D01*
X0372987Y0364280D01*
X0372985Y0364225D01*
X0376877Y0364992D02*
X0378410Y0364992D01*
X0377899Y0366525D02*
X0377899Y0362692D01*
X0377900Y0362692D02*
X0377898Y0362637D01*
X0377892Y0362583D01*
X0377882Y0362529D01*
X0377869Y0362476D01*
X0377852Y0362424D01*
X0377831Y0362373D01*
X0377806Y0362324D01*
X0377778Y0362277D01*
X0377747Y0362232D01*
X0377713Y0362190D01*
X0377675Y0362150D01*
X0377635Y0362112D01*
X0377593Y0362078D01*
X0377548Y0362047D01*
X0377501Y0362019D01*
X0377452Y0361994D01*
X0377401Y0361973D01*
X0377349Y0361956D01*
X0377296Y0361943D01*
X0377242Y0361933D01*
X0377188Y0361927D01*
X0377133Y0361925D01*
X0376877Y0361925D01*
X0379885Y0362947D02*
X0379885Y0363969D01*
X0379887Y0364032D01*
X0379893Y0364095D01*
X0379902Y0364157D01*
X0379916Y0364218D01*
X0379933Y0364279D01*
X0379954Y0364338D01*
X0379979Y0364396D01*
X0380007Y0364453D01*
X0380038Y0364507D01*
X0380073Y0364559D01*
X0380111Y0364610D01*
X0380152Y0364658D01*
X0380196Y0364703D01*
X0380242Y0364745D01*
X0380291Y0364785D01*
X0380342Y0364821D01*
X0380396Y0364854D01*
X0380451Y0364884D01*
X0380509Y0364910D01*
X0380567Y0364933D01*
X0380627Y0364952D01*
X0380688Y0364967D01*
X0380750Y0364979D01*
X0380813Y0364987D01*
X0380876Y0364991D01*
X0380938Y0364991D01*
X0381001Y0364987D01*
X0381064Y0364979D01*
X0381126Y0364967D01*
X0381187Y0364952D01*
X0381247Y0364933D01*
X0381305Y0364910D01*
X0381363Y0364884D01*
X0381418Y0364854D01*
X0381472Y0364821D01*
X0381523Y0364785D01*
X0381572Y0364745D01*
X0381618Y0364703D01*
X0381662Y0364658D01*
X0381703Y0364610D01*
X0381741Y0364559D01*
X0381776Y0364507D01*
X0381807Y0364453D01*
X0381835Y0364396D01*
X0381860Y0364338D01*
X0381881Y0364279D01*
X0381898Y0364218D01*
X0381912Y0364157D01*
X0381921Y0364095D01*
X0381927Y0364032D01*
X0381929Y0363969D01*
X0381929Y0362947D01*
X0381927Y0362884D01*
X0381921Y0362821D01*
X0381912Y0362759D01*
X0381898Y0362698D01*
X0381881Y0362637D01*
X0381860Y0362578D01*
X0381835Y0362520D01*
X0381807Y0362463D01*
X0381776Y0362409D01*
X0381741Y0362357D01*
X0381703Y0362306D01*
X0381662Y0362258D01*
X0381618Y0362213D01*
X0381572Y0362171D01*
X0381523Y0362131D01*
X0381472Y0362095D01*
X0381418Y0362062D01*
X0381363Y0362032D01*
X0381305Y0362006D01*
X0381247Y0361983D01*
X0381187Y0361964D01*
X0381126Y0361949D01*
X0381064Y0361937D01*
X0381001Y0361929D01*
X0380938Y0361925D01*
X0380876Y0361925D01*
X0380813Y0361929D01*
X0380750Y0361937D01*
X0380688Y0361949D01*
X0380627Y0361964D01*
X0380567Y0361983D01*
X0380509Y0362006D01*
X0380451Y0362032D01*
X0380396Y0362062D01*
X0380342Y0362095D01*
X0380291Y0362131D01*
X0380242Y0362171D01*
X0380196Y0362213D01*
X0380152Y0362258D01*
X0380111Y0362306D01*
X0380073Y0362357D01*
X0380038Y0362409D01*
X0380007Y0362463D01*
X0379979Y0362520D01*
X0379954Y0362578D01*
X0379933Y0362637D01*
X0379916Y0362698D01*
X0379902Y0362759D01*
X0379893Y0362821D01*
X0379887Y0362884D01*
X0379885Y0362947D01*
X0383935Y0361925D02*
X0383935Y0364225D01*
X0383937Y0364280D01*
X0383943Y0364334D01*
X0383953Y0364388D01*
X0383966Y0364441D01*
X0383983Y0364493D01*
X0384004Y0364544D01*
X0384029Y0364593D01*
X0384057Y0364640D01*
X0384088Y0364685D01*
X0384122Y0364727D01*
X0384160Y0364767D01*
X0384200Y0364805D01*
X0384242Y0364839D01*
X0384287Y0364870D01*
X0384334Y0364898D01*
X0384383Y0364923D01*
X0384434Y0364944D01*
X0384486Y0364961D01*
X0384539Y0364974D01*
X0384593Y0364984D01*
X0384647Y0364990D01*
X0384702Y0364992D01*
X0385979Y0364992D01*
X0385979Y0361925D01*
X0388158Y0361925D02*
X0388158Y0364225D01*
X0388158Y0363714D02*
X0389308Y0363714D01*
X0388158Y0364225D02*
X0388160Y0364277D01*
X0388165Y0364329D01*
X0388174Y0364381D01*
X0388186Y0364432D01*
X0388202Y0364482D01*
X0388222Y0364531D01*
X0388244Y0364578D01*
X0388270Y0364624D01*
X0388298Y0364667D01*
X0388330Y0364709D01*
X0388364Y0364749D01*
X0388401Y0364786D01*
X0388441Y0364820D01*
X0388483Y0364852D01*
X0388526Y0364880D01*
X0388572Y0364906D01*
X0388619Y0364929D01*
X0388668Y0364948D01*
X0388718Y0364964D01*
X0388769Y0364976D01*
X0388821Y0364985D01*
X0388873Y0364990D01*
X0388925Y0364992D01*
X0389947Y0364992D01*
X0389308Y0363713D02*
X0389366Y0363711D01*
X0389425Y0363705D01*
X0389482Y0363696D01*
X0389539Y0363683D01*
X0389595Y0363666D01*
X0389650Y0363645D01*
X0389703Y0363621D01*
X0389755Y0363593D01*
X0389805Y0363562D01*
X0389852Y0363528D01*
X0389897Y0363491D01*
X0389940Y0363451D01*
X0389980Y0363408D01*
X0390017Y0363363D01*
X0390051Y0363316D01*
X0390082Y0363266D01*
X0390110Y0363214D01*
X0390134Y0363161D01*
X0390155Y0363106D01*
X0390172Y0363050D01*
X0390185Y0362993D01*
X0390194Y0362936D01*
X0390200Y0362877D01*
X0390202Y0362819D01*
X0390200Y0362761D01*
X0390194Y0362702D01*
X0390185Y0362645D01*
X0390172Y0362588D01*
X0390155Y0362532D01*
X0390134Y0362477D01*
X0390110Y0362424D01*
X0390082Y0362372D01*
X0390051Y0362322D01*
X0390017Y0362275D01*
X0389980Y0362230D01*
X0389940Y0362187D01*
X0389897Y0362147D01*
X0389852Y0362110D01*
X0389805Y0362076D01*
X0389755Y0362045D01*
X0389703Y0362017D01*
X0389650Y0361993D01*
X0389595Y0361972D01*
X0389539Y0361955D01*
X0389482Y0361942D01*
X0389425Y0361933D01*
X0389366Y0361927D01*
X0389308Y0361925D01*
X0388158Y0361925D01*
X0390810Y0359025D02*
X0390810Y0355192D01*
X0390808Y0355137D01*
X0390802Y0355083D01*
X0390792Y0355029D01*
X0390779Y0354976D01*
X0390762Y0354924D01*
X0390741Y0354873D01*
X0390716Y0354824D01*
X0390688Y0354777D01*
X0390657Y0354732D01*
X0390623Y0354690D01*
X0390585Y0354650D01*
X0390545Y0354612D01*
X0390503Y0354578D01*
X0390458Y0354547D01*
X0390411Y0354519D01*
X0390362Y0354494D01*
X0390311Y0354473D01*
X0390259Y0354456D01*
X0390206Y0354443D01*
X0390152Y0354433D01*
X0390098Y0354427D01*
X0390043Y0354425D01*
X0389788Y0354425D01*
X0389788Y0357492D02*
X0391321Y0357492D01*
X0392969Y0356725D02*
X0392969Y0354425D01*
X0394119Y0354425D01*
X0394177Y0354427D01*
X0394236Y0354433D01*
X0394293Y0354442D01*
X0394350Y0354455D01*
X0394406Y0354472D01*
X0394461Y0354493D01*
X0394514Y0354517D01*
X0394566Y0354545D01*
X0394616Y0354576D01*
X0394663Y0354610D01*
X0394708Y0354647D01*
X0394751Y0354687D01*
X0394791Y0354730D01*
X0394828Y0354775D01*
X0394862Y0354822D01*
X0394893Y0354872D01*
X0394921Y0354924D01*
X0394945Y0354977D01*
X0394966Y0355032D01*
X0394983Y0355088D01*
X0394996Y0355145D01*
X0395005Y0355202D01*
X0395011Y0355261D01*
X0395013Y0355319D01*
X0395011Y0355377D01*
X0395005Y0355436D01*
X0394996Y0355493D01*
X0394983Y0355550D01*
X0394966Y0355606D01*
X0394945Y0355661D01*
X0394921Y0355714D01*
X0394893Y0355766D01*
X0394862Y0355816D01*
X0394828Y0355863D01*
X0394791Y0355908D01*
X0394751Y0355951D01*
X0394708Y0355991D01*
X0394663Y0356028D01*
X0394616Y0356062D01*
X0394566Y0356093D01*
X0394514Y0356121D01*
X0394461Y0356145D01*
X0394406Y0356166D01*
X0394350Y0356183D01*
X0394293Y0356196D01*
X0394236Y0356205D01*
X0394177Y0356211D01*
X0394119Y0356213D01*
X0394119Y0356214D02*
X0392969Y0356214D01*
X0392969Y0356725D02*
X0392971Y0356777D01*
X0392976Y0356829D01*
X0392985Y0356881D01*
X0392997Y0356932D01*
X0393013Y0356982D01*
X0393033Y0357031D01*
X0393055Y0357078D01*
X0393081Y0357124D01*
X0393109Y0357167D01*
X0393141Y0357209D01*
X0393175Y0357249D01*
X0393212Y0357286D01*
X0393252Y0357320D01*
X0393294Y0357352D01*
X0393337Y0357380D01*
X0393383Y0357406D01*
X0393430Y0357429D01*
X0393479Y0357448D01*
X0393529Y0357464D01*
X0393580Y0357476D01*
X0393632Y0357485D01*
X0393684Y0357490D01*
X0393736Y0357492D01*
X0394758Y0357492D01*
X0396646Y0357492D02*
X0397668Y0357492D01*
X0397723Y0357490D01*
X0397777Y0357484D01*
X0397831Y0357474D01*
X0397884Y0357461D01*
X0397936Y0357444D01*
X0397987Y0357423D01*
X0398036Y0357398D01*
X0398083Y0357370D01*
X0398128Y0357339D01*
X0398170Y0357305D01*
X0398210Y0357267D01*
X0398248Y0357227D01*
X0398282Y0357185D01*
X0398313Y0357140D01*
X0398341Y0357093D01*
X0398366Y0357044D01*
X0398387Y0356993D01*
X0398404Y0356941D01*
X0398417Y0356888D01*
X0398427Y0356834D01*
X0398433Y0356780D01*
X0398435Y0356725D01*
X0398435Y0355192D01*
X0398433Y0355137D01*
X0398427Y0355083D01*
X0398417Y0355029D01*
X0398404Y0354976D01*
X0398387Y0354924D01*
X0398366Y0354873D01*
X0398341Y0354824D01*
X0398313Y0354777D01*
X0398282Y0354732D01*
X0398248Y0354690D01*
X0398210Y0354650D01*
X0398170Y0354612D01*
X0398128Y0354578D01*
X0398083Y0354547D01*
X0398036Y0354519D01*
X0397987Y0354494D01*
X0397936Y0354473D01*
X0397884Y0354456D01*
X0397831Y0354443D01*
X0397777Y0354433D01*
X0397723Y0354427D01*
X0397668Y0354425D01*
X0396646Y0354425D01*
X0398307Y0361925D02*
X0398307Y0364992D01*
X0398179Y0366269D02*
X0398435Y0366269D01*
X0398435Y0366525D01*
X0398179Y0366525D01*
X0398179Y0366269D01*
X0395841Y0364992D02*
X0395892Y0364991D01*
X0395942Y0364986D01*
X0395993Y0364976D01*
X0396042Y0364964D01*
X0396090Y0364947D01*
X0396137Y0364926D01*
X0396183Y0364903D01*
X0396226Y0364875D01*
X0396267Y0364845D01*
X0396305Y0364811D01*
X0396341Y0364775D01*
X0396374Y0364735D01*
X0396404Y0364694D01*
X0396430Y0364650D01*
X0396453Y0364605D01*
X0396472Y0364557D01*
X0396488Y0364509D01*
X0396500Y0364459D01*
X0396508Y0364409D01*
X0396512Y0364358D01*
X0396513Y0364307D01*
X0396509Y0364256D01*
X0396501Y0364205D01*
X0396490Y0364155D01*
X0396475Y0364106D01*
X0396456Y0364059D01*
X0396433Y0364013D01*
X0396407Y0363969D01*
X0396378Y0363927D01*
X0396345Y0363888D01*
X0396310Y0363851D01*
X0396271Y0363817D01*
X0396231Y0363786D01*
X0396188Y0363759D01*
X0396143Y0363734D01*
X0396096Y0363713D01*
X0396096Y0363714D02*
X0394818Y0363203D01*
X0394818Y0363204D02*
X0394771Y0363183D01*
X0394726Y0363158D01*
X0394683Y0363131D01*
X0394643Y0363100D01*
X0394604Y0363066D01*
X0394569Y0363029D01*
X0394536Y0362990D01*
X0394507Y0362948D01*
X0394481Y0362904D01*
X0394458Y0362858D01*
X0394439Y0362811D01*
X0394424Y0362762D01*
X0394413Y0362712D01*
X0394405Y0362661D01*
X0394401Y0362610D01*
X0394402Y0362559D01*
X0394406Y0362508D01*
X0394414Y0362458D01*
X0394426Y0362408D01*
X0394442Y0362360D01*
X0394461Y0362312D01*
X0394484Y0362267D01*
X0394510Y0362223D01*
X0394540Y0362182D01*
X0394573Y0362142D01*
X0394609Y0362106D01*
X0394647Y0362072D01*
X0394688Y0362042D01*
X0394731Y0362014D01*
X0394777Y0361991D01*
X0394824Y0361970D01*
X0394872Y0361953D01*
X0394921Y0361941D01*
X0394972Y0361931D01*
X0395022Y0361926D01*
X0395073Y0361925D01*
X0394691Y0364736D02*
X0394781Y0364775D01*
X0394874Y0364811D01*
X0394967Y0364844D01*
X0395061Y0364873D01*
X0395156Y0364900D01*
X0395252Y0364923D01*
X0395349Y0364943D01*
X0395447Y0364959D01*
X0395545Y0364972D01*
X0395643Y0364982D01*
X0395742Y0364989D01*
X0395841Y0364992D01*
X0396479Y0362181D02*
X0396356Y0362139D01*
X0396231Y0362100D01*
X0396106Y0362065D01*
X0395979Y0362034D01*
X0395851Y0362007D01*
X0395723Y0361984D01*
X0395594Y0361964D01*
X0395464Y0361949D01*
X0395335Y0361937D01*
X0395204Y0361929D01*
X0395074Y0361925D01*
X0395054Y0369425D02*
X0395054Y0374025D01*
X0395054Y0372492D02*
X0393776Y0372492D01*
X0393721Y0372490D01*
X0393667Y0372484D01*
X0393613Y0372474D01*
X0393560Y0372461D01*
X0393508Y0372444D01*
X0393457Y0372423D01*
X0393408Y0372398D01*
X0393361Y0372370D01*
X0393316Y0372339D01*
X0393274Y0372305D01*
X0393234Y0372267D01*
X0393196Y0372227D01*
X0393162Y0372185D01*
X0393131Y0372140D01*
X0393103Y0372093D01*
X0393078Y0372044D01*
X0393057Y0371993D01*
X0393040Y0371941D01*
X0393027Y0371888D01*
X0393017Y0371834D01*
X0393011Y0371780D01*
X0393009Y0371725D01*
X0393010Y0371725D02*
X0393010Y0369425D01*
X0391004Y0370192D02*
X0391004Y0371469D01*
X0391004Y0370958D02*
X0388960Y0370958D01*
X0388960Y0371469D01*
X0388962Y0371532D01*
X0388968Y0371595D01*
X0388977Y0371657D01*
X0388991Y0371718D01*
X0389008Y0371779D01*
X0389029Y0371838D01*
X0389054Y0371896D01*
X0389082Y0371953D01*
X0389113Y0372007D01*
X0389148Y0372059D01*
X0389186Y0372110D01*
X0389227Y0372158D01*
X0389271Y0372203D01*
X0389317Y0372245D01*
X0389366Y0372285D01*
X0389417Y0372321D01*
X0389471Y0372354D01*
X0389526Y0372384D01*
X0389584Y0372410D01*
X0389642Y0372433D01*
X0389702Y0372452D01*
X0389763Y0372467D01*
X0389825Y0372479D01*
X0389888Y0372487D01*
X0389951Y0372491D01*
X0390013Y0372491D01*
X0390076Y0372487D01*
X0390139Y0372479D01*
X0390201Y0372467D01*
X0390262Y0372452D01*
X0390322Y0372433D01*
X0390380Y0372410D01*
X0390438Y0372384D01*
X0390493Y0372354D01*
X0390547Y0372321D01*
X0390598Y0372285D01*
X0390647Y0372245D01*
X0390693Y0372203D01*
X0390737Y0372158D01*
X0390778Y0372110D01*
X0390816Y0372059D01*
X0390851Y0372007D01*
X0390882Y0371953D01*
X0390910Y0371896D01*
X0390935Y0371838D01*
X0390956Y0371779D01*
X0390973Y0371718D01*
X0390987Y0371657D01*
X0390996Y0371595D01*
X0391002Y0371532D01*
X0391004Y0371469D01*
X0391005Y0370192D02*
X0391003Y0370137D01*
X0390997Y0370083D01*
X0390987Y0370029D01*
X0390974Y0369976D01*
X0390957Y0369924D01*
X0390936Y0369873D01*
X0390911Y0369824D01*
X0390883Y0369777D01*
X0390852Y0369732D01*
X0390818Y0369690D01*
X0390780Y0369650D01*
X0390740Y0369612D01*
X0390698Y0369578D01*
X0390653Y0369547D01*
X0390606Y0369519D01*
X0390557Y0369494D01*
X0390506Y0369473D01*
X0390454Y0369456D01*
X0390401Y0369443D01*
X0390347Y0369433D01*
X0390293Y0369427D01*
X0390238Y0369425D01*
X0388960Y0369425D01*
X0384531Y0369425D02*
X0383253Y0369425D01*
X0383198Y0369427D01*
X0383144Y0369433D01*
X0383090Y0369443D01*
X0383037Y0369456D01*
X0382985Y0369473D01*
X0382934Y0369494D01*
X0382885Y0369519D01*
X0382838Y0369547D01*
X0382793Y0369578D01*
X0382751Y0369612D01*
X0382711Y0369650D01*
X0382673Y0369690D01*
X0382639Y0369732D01*
X0382608Y0369777D01*
X0382580Y0369824D01*
X0382555Y0369873D01*
X0382534Y0369924D01*
X0382517Y0369976D01*
X0382504Y0370029D01*
X0382494Y0370083D01*
X0382488Y0370137D01*
X0382486Y0370192D01*
X0382487Y0370192D02*
X0382487Y0371725D01*
X0382486Y0371725D02*
X0382488Y0371777D01*
X0382493Y0371829D01*
X0382502Y0371881D01*
X0382514Y0371932D01*
X0382530Y0371982D01*
X0382550Y0372031D01*
X0382572Y0372078D01*
X0382598Y0372124D01*
X0382626Y0372167D01*
X0382658Y0372209D01*
X0382692Y0372249D01*
X0382729Y0372286D01*
X0382769Y0372320D01*
X0382811Y0372352D01*
X0382854Y0372380D01*
X0382900Y0372406D01*
X0382947Y0372429D01*
X0382996Y0372448D01*
X0383046Y0372464D01*
X0383097Y0372476D01*
X0383149Y0372485D01*
X0383201Y0372490D01*
X0383253Y0372492D01*
X0384531Y0372492D01*
X0384531Y0374025D02*
X0384531Y0369425D01*
X0380654Y0370192D02*
X0380654Y0371469D01*
X0380654Y0370958D02*
X0378610Y0370958D01*
X0378610Y0371469D01*
X0378612Y0371532D01*
X0378618Y0371595D01*
X0378627Y0371657D01*
X0378641Y0371718D01*
X0378658Y0371779D01*
X0378679Y0371838D01*
X0378704Y0371896D01*
X0378732Y0371953D01*
X0378763Y0372007D01*
X0378798Y0372059D01*
X0378836Y0372110D01*
X0378877Y0372158D01*
X0378921Y0372203D01*
X0378967Y0372245D01*
X0379016Y0372285D01*
X0379067Y0372321D01*
X0379121Y0372354D01*
X0379176Y0372384D01*
X0379234Y0372410D01*
X0379292Y0372433D01*
X0379352Y0372452D01*
X0379413Y0372467D01*
X0379475Y0372479D01*
X0379538Y0372487D01*
X0379601Y0372491D01*
X0379663Y0372491D01*
X0379726Y0372487D01*
X0379789Y0372479D01*
X0379851Y0372467D01*
X0379912Y0372452D01*
X0379972Y0372433D01*
X0380030Y0372410D01*
X0380088Y0372384D01*
X0380143Y0372354D01*
X0380197Y0372321D01*
X0380248Y0372285D01*
X0380297Y0372245D01*
X0380343Y0372203D01*
X0380387Y0372158D01*
X0380428Y0372110D01*
X0380466Y0372059D01*
X0380501Y0372007D01*
X0380532Y0371953D01*
X0380560Y0371896D01*
X0380585Y0371838D01*
X0380606Y0371779D01*
X0380623Y0371718D01*
X0380637Y0371657D01*
X0380646Y0371595D01*
X0380652Y0371532D01*
X0380654Y0371469D01*
X0380655Y0370192D02*
X0380653Y0370137D01*
X0380647Y0370083D01*
X0380637Y0370029D01*
X0380624Y0369976D01*
X0380607Y0369924D01*
X0380586Y0369873D01*
X0380561Y0369824D01*
X0380533Y0369777D01*
X0380502Y0369732D01*
X0380468Y0369690D01*
X0380430Y0369650D01*
X0380390Y0369612D01*
X0380348Y0369578D01*
X0380303Y0369547D01*
X0380256Y0369519D01*
X0380207Y0369494D01*
X0380156Y0369473D01*
X0380104Y0369456D01*
X0380051Y0369443D01*
X0379997Y0369433D01*
X0379943Y0369427D01*
X0379888Y0369425D01*
X0378610Y0369425D01*
X0376116Y0372492D02*
X0376017Y0372489D01*
X0375918Y0372482D01*
X0375820Y0372472D01*
X0375722Y0372459D01*
X0375624Y0372443D01*
X0375527Y0372423D01*
X0375431Y0372400D01*
X0375336Y0372373D01*
X0375242Y0372344D01*
X0375149Y0372311D01*
X0375056Y0372275D01*
X0374966Y0372236D01*
X0376116Y0372492D02*
X0376167Y0372491D01*
X0376217Y0372486D01*
X0376268Y0372476D01*
X0376317Y0372464D01*
X0376365Y0372447D01*
X0376412Y0372426D01*
X0376458Y0372403D01*
X0376501Y0372375D01*
X0376542Y0372345D01*
X0376580Y0372311D01*
X0376616Y0372275D01*
X0376649Y0372235D01*
X0376679Y0372194D01*
X0376705Y0372150D01*
X0376728Y0372105D01*
X0376747Y0372057D01*
X0376763Y0372009D01*
X0376775Y0371959D01*
X0376783Y0371909D01*
X0376787Y0371858D01*
X0376788Y0371807D01*
X0376784Y0371756D01*
X0376776Y0371705D01*
X0376765Y0371655D01*
X0376750Y0371606D01*
X0376731Y0371559D01*
X0376708Y0371513D01*
X0376682Y0371469D01*
X0376653Y0371427D01*
X0376620Y0371388D01*
X0376585Y0371351D01*
X0376546Y0371317D01*
X0376506Y0371286D01*
X0376463Y0371259D01*
X0376418Y0371234D01*
X0376371Y0371213D01*
X0376371Y0371214D02*
X0375093Y0370703D01*
X0375093Y0370704D02*
X0375046Y0370683D01*
X0375001Y0370658D01*
X0374958Y0370631D01*
X0374918Y0370600D01*
X0374879Y0370566D01*
X0374844Y0370529D01*
X0374811Y0370490D01*
X0374782Y0370448D01*
X0374756Y0370404D01*
X0374733Y0370358D01*
X0374714Y0370311D01*
X0374699Y0370262D01*
X0374688Y0370212D01*
X0374680Y0370161D01*
X0374676Y0370110D01*
X0374677Y0370059D01*
X0374681Y0370008D01*
X0374689Y0369958D01*
X0374701Y0369908D01*
X0374717Y0369860D01*
X0374736Y0369812D01*
X0374759Y0369767D01*
X0374785Y0369723D01*
X0374815Y0369682D01*
X0374848Y0369642D01*
X0374884Y0369606D01*
X0374922Y0369572D01*
X0374963Y0369542D01*
X0375006Y0369514D01*
X0375052Y0369491D01*
X0375099Y0369470D01*
X0375147Y0369453D01*
X0375196Y0369441D01*
X0375247Y0369431D01*
X0375297Y0369426D01*
X0375348Y0369425D01*
X0372724Y0370192D02*
X0372724Y0374025D01*
X0373235Y0372492D02*
X0371702Y0372492D01*
X0372724Y0370192D02*
X0372722Y0370137D01*
X0372716Y0370083D01*
X0372706Y0370029D01*
X0372693Y0369976D01*
X0372676Y0369924D01*
X0372655Y0369873D01*
X0372630Y0369824D01*
X0372602Y0369777D01*
X0372571Y0369732D01*
X0372537Y0369690D01*
X0372499Y0369650D01*
X0372459Y0369612D01*
X0372417Y0369578D01*
X0372372Y0369547D01*
X0372325Y0369519D01*
X0372276Y0369494D01*
X0372225Y0369473D01*
X0372173Y0369456D01*
X0372120Y0369443D01*
X0372066Y0369433D01*
X0372012Y0369427D01*
X0371957Y0369425D01*
X0371702Y0369425D01*
X0367365Y0369425D02*
X0367365Y0372492D01*
X0365065Y0372492D01*
X0365010Y0372490D01*
X0364956Y0372484D01*
X0364902Y0372474D01*
X0364849Y0372461D01*
X0364797Y0372444D01*
X0364746Y0372423D01*
X0364697Y0372398D01*
X0364650Y0372370D01*
X0364605Y0372339D01*
X0364563Y0372305D01*
X0364523Y0372267D01*
X0364485Y0372227D01*
X0364451Y0372185D01*
X0364420Y0372140D01*
X0364392Y0372093D01*
X0364367Y0372044D01*
X0364346Y0371993D01*
X0364329Y0371941D01*
X0364316Y0371888D01*
X0364306Y0371834D01*
X0364300Y0371780D01*
X0364298Y0371725D01*
X0364299Y0371725D02*
X0364299Y0369425D01*
X0365832Y0369425D02*
X0365832Y0372492D01*
X0361972Y0372492D02*
X0360950Y0372492D01*
X0360898Y0372490D01*
X0360846Y0372485D01*
X0360794Y0372476D01*
X0360743Y0372464D01*
X0360693Y0372448D01*
X0360644Y0372429D01*
X0360597Y0372406D01*
X0360551Y0372380D01*
X0360508Y0372352D01*
X0360466Y0372320D01*
X0360426Y0372286D01*
X0360389Y0372249D01*
X0360355Y0372209D01*
X0360323Y0372167D01*
X0360295Y0372124D01*
X0360269Y0372078D01*
X0360247Y0372031D01*
X0360227Y0371982D01*
X0360211Y0371932D01*
X0360199Y0371881D01*
X0360190Y0371829D01*
X0360185Y0371777D01*
X0360183Y0371725D01*
X0360183Y0369425D01*
X0361333Y0369425D01*
X0361391Y0369427D01*
X0361450Y0369433D01*
X0361507Y0369442D01*
X0361564Y0369455D01*
X0361620Y0369472D01*
X0361675Y0369493D01*
X0361728Y0369517D01*
X0361780Y0369545D01*
X0361830Y0369576D01*
X0361877Y0369610D01*
X0361922Y0369647D01*
X0361965Y0369687D01*
X0362005Y0369730D01*
X0362042Y0369775D01*
X0362076Y0369822D01*
X0362107Y0369872D01*
X0362135Y0369924D01*
X0362159Y0369977D01*
X0362180Y0370032D01*
X0362197Y0370088D01*
X0362210Y0370145D01*
X0362219Y0370202D01*
X0362225Y0370261D01*
X0362227Y0370319D01*
X0362225Y0370377D01*
X0362219Y0370436D01*
X0362210Y0370493D01*
X0362197Y0370550D01*
X0362180Y0370606D01*
X0362159Y0370661D01*
X0362135Y0370714D01*
X0362107Y0370766D01*
X0362076Y0370816D01*
X0362042Y0370863D01*
X0362005Y0370908D01*
X0361965Y0370951D01*
X0361922Y0370991D01*
X0361877Y0371028D01*
X0361830Y0371062D01*
X0361780Y0371093D01*
X0361728Y0371121D01*
X0361675Y0371145D01*
X0361620Y0371166D01*
X0361564Y0371183D01*
X0361507Y0371196D01*
X0361450Y0371205D01*
X0361391Y0371211D01*
X0361333Y0371213D01*
X0361333Y0371214D02*
X0360183Y0371214D01*
X0358535Y0372492D02*
X0357002Y0372492D01*
X0358024Y0374025D02*
X0358024Y0370192D01*
X0358022Y0370137D01*
X0358016Y0370083D01*
X0358006Y0370029D01*
X0357993Y0369976D01*
X0357976Y0369924D01*
X0357955Y0369873D01*
X0357930Y0369824D01*
X0357902Y0369777D01*
X0357871Y0369732D01*
X0357837Y0369690D01*
X0357799Y0369650D01*
X0357759Y0369612D01*
X0357717Y0369578D01*
X0357672Y0369547D01*
X0357625Y0369519D01*
X0357576Y0369494D01*
X0357525Y0369473D01*
X0357473Y0369456D01*
X0357420Y0369443D01*
X0357366Y0369433D01*
X0357312Y0369427D01*
X0357257Y0369425D01*
X0357002Y0369425D01*
X0355304Y0370192D02*
X0355304Y0371469D01*
X0355304Y0370958D02*
X0353260Y0370958D01*
X0353260Y0371469D01*
X0353262Y0371532D01*
X0353268Y0371595D01*
X0353277Y0371657D01*
X0353291Y0371718D01*
X0353308Y0371779D01*
X0353329Y0371838D01*
X0353354Y0371896D01*
X0353382Y0371953D01*
X0353413Y0372007D01*
X0353448Y0372059D01*
X0353486Y0372110D01*
X0353527Y0372158D01*
X0353571Y0372203D01*
X0353617Y0372245D01*
X0353666Y0372285D01*
X0353717Y0372321D01*
X0353771Y0372354D01*
X0353826Y0372384D01*
X0353884Y0372410D01*
X0353942Y0372433D01*
X0354002Y0372452D01*
X0354063Y0372467D01*
X0354125Y0372479D01*
X0354188Y0372487D01*
X0354251Y0372491D01*
X0354313Y0372491D01*
X0354376Y0372487D01*
X0354439Y0372479D01*
X0354501Y0372467D01*
X0354562Y0372452D01*
X0354622Y0372433D01*
X0354680Y0372410D01*
X0354738Y0372384D01*
X0354793Y0372354D01*
X0354847Y0372321D01*
X0354898Y0372285D01*
X0354947Y0372245D01*
X0354993Y0372203D01*
X0355037Y0372158D01*
X0355078Y0372110D01*
X0355116Y0372059D01*
X0355151Y0372007D01*
X0355182Y0371953D01*
X0355210Y0371896D01*
X0355235Y0371838D01*
X0355256Y0371779D01*
X0355273Y0371718D01*
X0355287Y0371657D01*
X0355296Y0371595D01*
X0355302Y0371532D01*
X0355304Y0371469D01*
X0355305Y0370192D02*
X0355303Y0370137D01*
X0355297Y0370083D01*
X0355287Y0370029D01*
X0355274Y0369976D01*
X0355257Y0369924D01*
X0355236Y0369873D01*
X0355211Y0369824D01*
X0355183Y0369777D01*
X0355152Y0369732D01*
X0355118Y0369690D01*
X0355080Y0369650D01*
X0355040Y0369612D01*
X0354998Y0369578D01*
X0354953Y0369547D01*
X0354906Y0369519D01*
X0354857Y0369494D01*
X0354806Y0369473D01*
X0354754Y0369456D01*
X0354701Y0369443D01*
X0354647Y0369433D01*
X0354593Y0369427D01*
X0354538Y0369425D01*
X0353260Y0369425D01*
X0351228Y0369425D02*
X0351228Y0372492D01*
X0349695Y0372492D01*
X0349695Y0371981D01*
X0348282Y0372492D02*
X0348282Y0369425D01*
X0345583Y0369425D02*
X0344433Y0369425D01*
X0344433Y0371725D01*
X0344433Y0371214D02*
X0345583Y0371214D01*
X0344433Y0371725D02*
X0344435Y0371777D01*
X0344440Y0371829D01*
X0344449Y0371881D01*
X0344461Y0371932D01*
X0344477Y0371982D01*
X0344497Y0372031D01*
X0344519Y0372078D01*
X0344545Y0372124D01*
X0344573Y0372167D01*
X0344605Y0372209D01*
X0344639Y0372249D01*
X0344676Y0372286D01*
X0344716Y0372320D01*
X0344758Y0372352D01*
X0344801Y0372380D01*
X0344847Y0372406D01*
X0344894Y0372429D01*
X0344943Y0372448D01*
X0344993Y0372464D01*
X0345044Y0372476D01*
X0345096Y0372485D01*
X0345148Y0372490D01*
X0345200Y0372492D01*
X0346222Y0372492D01*
X0345583Y0371213D02*
X0345641Y0371211D01*
X0345700Y0371205D01*
X0345757Y0371196D01*
X0345814Y0371183D01*
X0345870Y0371166D01*
X0345925Y0371145D01*
X0345978Y0371121D01*
X0346030Y0371093D01*
X0346080Y0371062D01*
X0346127Y0371028D01*
X0346172Y0370991D01*
X0346215Y0370951D01*
X0346255Y0370908D01*
X0346292Y0370863D01*
X0346326Y0370816D01*
X0346357Y0370766D01*
X0346385Y0370714D01*
X0346409Y0370661D01*
X0346430Y0370606D01*
X0346447Y0370550D01*
X0346460Y0370493D01*
X0346469Y0370436D01*
X0346475Y0370377D01*
X0346477Y0370319D01*
X0346475Y0370261D01*
X0346469Y0370202D01*
X0346460Y0370145D01*
X0346447Y0370088D01*
X0346430Y0370032D01*
X0346409Y0369977D01*
X0346385Y0369924D01*
X0346357Y0369872D01*
X0346326Y0369822D01*
X0346292Y0369775D01*
X0346255Y0369730D01*
X0346215Y0369687D01*
X0346172Y0369647D01*
X0346127Y0369610D01*
X0346080Y0369576D01*
X0346030Y0369545D01*
X0345978Y0369517D01*
X0345925Y0369493D01*
X0345870Y0369472D01*
X0345814Y0369455D01*
X0345757Y0369442D01*
X0345700Y0369433D01*
X0345641Y0369427D01*
X0345583Y0369425D01*
X0342345Y0370192D02*
X0342345Y0374025D01*
X0342346Y0370192D02*
X0342344Y0370137D01*
X0342338Y0370083D01*
X0342328Y0370029D01*
X0342315Y0369976D01*
X0342298Y0369924D01*
X0342277Y0369873D01*
X0342252Y0369824D01*
X0342224Y0369777D01*
X0342193Y0369732D01*
X0342159Y0369690D01*
X0342121Y0369650D01*
X0342081Y0369612D01*
X0342039Y0369578D01*
X0341994Y0369547D01*
X0341947Y0369519D01*
X0341898Y0369494D01*
X0341847Y0369473D01*
X0341795Y0369456D01*
X0341742Y0369443D01*
X0341688Y0369433D01*
X0341634Y0369427D01*
X0341579Y0369425D01*
X0337365Y0369425D02*
X0337365Y0372492D01*
X0335065Y0372492D01*
X0335010Y0372490D01*
X0334956Y0372484D01*
X0334902Y0372474D01*
X0334849Y0372461D01*
X0334797Y0372444D01*
X0334746Y0372423D01*
X0334697Y0372398D01*
X0334650Y0372370D01*
X0334605Y0372339D01*
X0334563Y0372305D01*
X0334523Y0372267D01*
X0334485Y0372227D01*
X0334451Y0372185D01*
X0334420Y0372140D01*
X0334392Y0372093D01*
X0334367Y0372044D01*
X0334346Y0371993D01*
X0334329Y0371941D01*
X0334316Y0371888D01*
X0334306Y0371834D01*
X0334300Y0371780D01*
X0334298Y0371725D01*
X0334299Y0371725D02*
X0334299Y0369425D01*
X0335832Y0369425D02*
X0335832Y0372492D01*
X0332204Y0371469D02*
X0332204Y0370447D01*
X0332202Y0370384D01*
X0332196Y0370321D01*
X0332187Y0370259D01*
X0332173Y0370198D01*
X0332156Y0370137D01*
X0332135Y0370078D01*
X0332110Y0370020D01*
X0332082Y0369963D01*
X0332051Y0369909D01*
X0332016Y0369857D01*
X0331978Y0369806D01*
X0331937Y0369758D01*
X0331893Y0369713D01*
X0331847Y0369671D01*
X0331798Y0369631D01*
X0331747Y0369595D01*
X0331693Y0369562D01*
X0331638Y0369532D01*
X0331580Y0369506D01*
X0331522Y0369483D01*
X0331462Y0369464D01*
X0331401Y0369449D01*
X0331339Y0369437D01*
X0331276Y0369429D01*
X0331213Y0369425D01*
X0331151Y0369425D01*
X0331088Y0369429D01*
X0331025Y0369437D01*
X0330963Y0369449D01*
X0330902Y0369464D01*
X0330842Y0369483D01*
X0330784Y0369506D01*
X0330726Y0369532D01*
X0330671Y0369562D01*
X0330617Y0369595D01*
X0330566Y0369631D01*
X0330517Y0369671D01*
X0330471Y0369713D01*
X0330427Y0369758D01*
X0330386Y0369806D01*
X0330348Y0369857D01*
X0330313Y0369909D01*
X0330282Y0369963D01*
X0330254Y0370020D01*
X0330229Y0370078D01*
X0330208Y0370137D01*
X0330191Y0370198D01*
X0330177Y0370259D01*
X0330168Y0370321D01*
X0330162Y0370384D01*
X0330160Y0370447D01*
X0330160Y0371469D01*
X0330162Y0371532D01*
X0330168Y0371595D01*
X0330177Y0371657D01*
X0330191Y0371718D01*
X0330208Y0371779D01*
X0330229Y0371838D01*
X0330254Y0371896D01*
X0330282Y0371953D01*
X0330313Y0372007D01*
X0330348Y0372059D01*
X0330386Y0372110D01*
X0330427Y0372158D01*
X0330471Y0372203D01*
X0330517Y0372245D01*
X0330566Y0372285D01*
X0330617Y0372321D01*
X0330671Y0372354D01*
X0330726Y0372384D01*
X0330784Y0372410D01*
X0330842Y0372433D01*
X0330902Y0372452D01*
X0330963Y0372467D01*
X0331025Y0372479D01*
X0331088Y0372487D01*
X0331151Y0372491D01*
X0331213Y0372491D01*
X0331276Y0372487D01*
X0331339Y0372479D01*
X0331401Y0372467D01*
X0331462Y0372452D01*
X0331522Y0372433D01*
X0331580Y0372410D01*
X0331638Y0372384D01*
X0331693Y0372354D01*
X0331747Y0372321D01*
X0331798Y0372285D01*
X0331847Y0372245D01*
X0331893Y0372203D01*
X0331937Y0372158D01*
X0331978Y0372110D01*
X0332016Y0372059D01*
X0332051Y0372007D01*
X0332082Y0371953D01*
X0332110Y0371896D01*
X0332135Y0371838D01*
X0332156Y0371779D01*
X0332173Y0371718D01*
X0332187Y0371657D01*
X0332196Y0371595D01*
X0332202Y0371532D01*
X0332204Y0371469D01*
X0328327Y0371725D02*
X0328327Y0370192D01*
X0328328Y0370192D02*
X0328326Y0370137D01*
X0328320Y0370083D01*
X0328310Y0370029D01*
X0328297Y0369976D01*
X0328280Y0369924D01*
X0328259Y0369873D01*
X0328234Y0369824D01*
X0328206Y0369777D01*
X0328175Y0369732D01*
X0328141Y0369690D01*
X0328103Y0369650D01*
X0328063Y0369612D01*
X0328021Y0369578D01*
X0327976Y0369547D01*
X0327929Y0369519D01*
X0327880Y0369494D01*
X0327829Y0369473D01*
X0327777Y0369456D01*
X0327724Y0369443D01*
X0327670Y0369433D01*
X0327616Y0369427D01*
X0327561Y0369425D01*
X0326283Y0369425D01*
X0326283Y0374025D01*
X0326283Y0372492D02*
X0327561Y0372492D01*
X0327616Y0372490D01*
X0327670Y0372484D01*
X0327724Y0372474D01*
X0327777Y0372461D01*
X0327829Y0372444D01*
X0327880Y0372423D01*
X0327929Y0372398D01*
X0327976Y0372370D01*
X0328021Y0372339D01*
X0328063Y0372305D01*
X0328103Y0372267D01*
X0328141Y0372227D01*
X0328175Y0372185D01*
X0328206Y0372140D01*
X0328234Y0372093D01*
X0328259Y0372044D01*
X0328280Y0371993D01*
X0328297Y0371941D01*
X0328310Y0371888D01*
X0328320Y0371834D01*
X0328326Y0371780D01*
X0328328Y0371725D01*
X0324254Y0371469D02*
X0324254Y0370192D01*
X0324254Y0370958D02*
X0322210Y0370958D01*
X0322210Y0371469D01*
X0322212Y0371532D01*
X0322218Y0371595D01*
X0322227Y0371657D01*
X0322241Y0371718D01*
X0322258Y0371779D01*
X0322279Y0371838D01*
X0322304Y0371896D01*
X0322332Y0371953D01*
X0322363Y0372007D01*
X0322398Y0372059D01*
X0322436Y0372110D01*
X0322477Y0372158D01*
X0322521Y0372203D01*
X0322567Y0372245D01*
X0322616Y0372285D01*
X0322667Y0372321D01*
X0322721Y0372354D01*
X0322776Y0372384D01*
X0322834Y0372410D01*
X0322892Y0372433D01*
X0322952Y0372452D01*
X0323013Y0372467D01*
X0323075Y0372479D01*
X0323138Y0372487D01*
X0323201Y0372491D01*
X0323263Y0372491D01*
X0323326Y0372487D01*
X0323389Y0372479D01*
X0323451Y0372467D01*
X0323512Y0372452D01*
X0323572Y0372433D01*
X0323630Y0372410D01*
X0323688Y0372384D01*
X0323743Y0372354D01*
X0323797Y0372321D01*
X0323848Y0372285D01*
X0323897Y0372245D01*
X0323943Y0372203D01*
X0323987Y0372158D01*
X0324028Y0372110D01*
X0324066Y0372059D01*
X0324101Y0372007D01*
X0324132Y0371953D01*
X0324160Y0371896D01*
X0324185Y0371838D01*
X0324206Y0371779D01*
X0324223Y0371718D01*
X0324237Y0371657D01*
X0324246Y0371595D01*
X0324252Y0371532D01*
X0324254Y0371469D01*
X0324255Y0370192D02*
X0324253Y0370137D01*
X0324247Y0370083D01*
X0324237Y0370029D01*
X0324224Y0369976D01*
X0324207Y0369924D01*
X0324186Y0369873D01*
X0324161Y0369824D01*
X0324133Y0369777D01*
X0324102Y0369732D01*
X0324068Y0369690D01*
X0324030Y0369650D01*
X0323990Y0369612D01*
X0323948Y0369578D01*
X0323903Y0369547D01*
X0323856Y0369519D01*
X0323807Y0369494D01*
X0323756Y0369473D01*
X0323704Y0369456D01*
X0323651Y0369443D01*
X0323597Y0369433D01*
X0323543Y0369427D01*
X0323488Y0369425D01*
X0322210Y0369425D01*
X0320295Y0370192D02*
X0320295Y0374025D01*
X0320296Y0370192D02*
X0320294Y0370137D01*
X0320288Y0370083D01*
X0320278Y0370029D01*
X0320265Y0369976D01*
X0320248Y0369924D01*
X0320227Y0369873D01*
X0320202Y0369824D01*
X0320174Y0369777D01*
X0320143Y0369732D01*
X0320109Y0369690D01*
X0320071Y0369650D01*
X0320031Y0369612D01*
X0319989Y0369578D01*
X0319944Y0369547D01*
X0319897Y0369519D01*
X0319848Y0369494D01*
X0319797Y0369473D01*
X0319745Y0369456D01*
X0319692Y0369443D01*
X0319638Y0369433D01*
X0319584Y0369427D01*
X0319529Y0369425D01*
X0315554Y0370447D02*
X0315554Y0371469D01*
X0315552Y0371532D01*
X0315546Y0371595D01*
X0315537Y0371657D01*
X0315523Y0371718D01*
X0315506Y0371779D01*
X0315485Y0371838D01*
X0315460Y0371896D01*
X0315432Y0371953D01*
X0315401Y0372007D01*
X0315366Y0372059D01*
X0315328Y0372110D01*
X0315287Y0372158D01*
X0315243Y0372203D01*
X0315197Y0372245D01*
X0315148Y0372285D01*
X0315097Y0372321D01*
X0315043Y0372354D01*
X0314988Y0372384D01*
X0314930Y0372410D01*
X0314872Y0372433D01*
X0314812Y0372452D01*
X0314751Y0372467D01*
X0314689Y0372479D01*
X0314626Y0372487D01*
X0314563Y0372491D01*
X0314501Y0372491D01*
X0314438Y0372487D01*
X0314375Y0372479D01*
X0314313Y0372467D01*
X0314252Y0372452D01*
X0314192Y0372433D01*
X0314134Y0372410D01*
X0314076Y0372384D01*
X0314021Y0372354D01*
X0313967Y0372321D01*
X0313916Y0372285D01*
X0313867Y0372245D01*
X0313821Y0372203D01*
X0313777Y0372158D01*
X0313736Y0372110D01*
X0313698Y0372059D01*
X0313663Y0372007D01*
X0313632Y0371953D01*
X0313604Y0371896D01*
X0313579Y0371838D01*
X0313558Y0371779D01*
X0313541Y0371718D01*
X0313527Y0371657D01*
X0313518Y0371595D01*
X0313512Y0371532D01*
X0313510Y0371469D01*
X0313510Y0370447D01*
X0313512Y0370384D01*
X0313518Y0370321D01*
X0313527Y0370259D01*
X0313541Y0370198D01*
X0313558Y0370137D01*
X0313579Y0370078D01*
X0313604Y0370020D01*
X0313632Y0369963D01*
X0313663Y0369909D01*
X0313698Y0369857D01*
X0313736Y0369806D01*
X0313777Y0369758D01*
X0313821Y0369713D01*
X0313867Y0369671D01*
X0313916Y0369631D01*
X0313967Y0369595D01*
X0314021Y0369562D01*
X0314076Y0369532D01*
X0314134Y0369506D01*
X0314192Y0369483D01*
X0314252Y0369464D01*
X0314313Y0369449D01*
X0314375Y0369437D01*
X0314438Y0369429D01*
X0314501Y0369425D01*
X0314563Y0369425D01*
X0314626Y0369429D01*
X0314689Y0369437D01*
X0314751Y0369449D01*
X0314812Y0369464D01*
X0314872Y0369483D01*
X0314930Y0369506D01*
X0314988Y0369532D01*
X0315043Y0369562D01*
X0315097Y0369595D01*
X0315148Y0369631D01*
X0315197Y0369671D01*
X0315243Y0369713D01*
X0315287Y0369758D01*
X0315328Y0369806D01*
X0315366Y0369857D01*
X0315401Y0369909D01*
X0315432Y0369963D01*
X0315460Y0370020D01*
X0315485Y0370078D01*
X0315506Y0370137D01*
X0315523Y0370198D01*
X0315537Y0370259D01*
X0315546Y0370321D01*
X0315552Y0370384D01*
X0315554Y0370447D01*
X0311919Y0372492D02*
X0310385Y0372492D01*
X0311408Y0373258D02*
X0311406Y0373313D01*
X0311400Y0373367D01*
X0311390Y0373421D01*
X0311377Y0373474D01*
X0311360Y0373526D01*
X0311339Y0373577D01*
X0311314Y0373626D01*
X0311286Y0373673D01*
X0311255Y0373718D01*
X0311221Y0373760D01*
X0311183Y0373800D01*
X0311143Y0373838D01*
X0311101Y0373872D01*
X0311056Y0373903D01*
X0311009Y0373931D01*
X0310960Y0373956D01*
X0310909Y0373977D01*
X0310857Y0373994D01*
X0310804Y0374007D01*
X0310750Y0374017D01*
X0310696Y0374023D01*
X0310641Y0374025D01*
X0310385Y0374025D01*
X0311408Y0373258D02*
X0311408Y0369425D01*
X0305833Y0369425D02*
X0304683Y0369425D01*
X0304683Y0371725D01*
X0304683Y0371214D02*
X0305833Y0371214D01*
X0304683Y0371725D02*
X0304685Y0371777D01*
X0304690Y0371829D01*
X0304699Y0371881D01*
X0304711Y0371932D01*
X0304727Y0371982D01*
X0304747Y0372031D01*
X0304769Y0372078D01*
X0304795Y0372124D01*
X0304823Y0372167D01*
X0304855Y0372209D01*
X0304889Y0372249D01*
X0304926Y0372286D01*
X0304966Y0372320D01*
X0305008Y0372352D01*
X0305051Y0372380D01*
X0305097Y0372406D01*
X0305144Y0372429D01*
X0305193Y0372448D01*
X0305243Y0372464D01*
X0305294Y0372476D01*
X0305346Y0372485D01*
X0305398Y0372490D01*
X0305450Y0372492D01*
X0306472Y0372492D01*
X0305833Y0371213D02*
X0305891Y0371211D01*
X0305950Y0371205D01*
X0306007Y0371196D01*
X0306064Y0371183D01*
X0306120Y0371166D01*
X0306175Y0371145D01*
X0306228Y0371121D01*
X0306280Y0371093D01*
X0306330Y0371062D01*
X0306377Y0371028D01*
X0306422Y0370991D01*
X0306465Y0370951D01*
X0306505Y0370908D01*
X0306542Y0370863D01*
X0306576Y0370816D01*
X0306607Y0370766D01*
X0306635Y0370714D01*
X0306659Y0370661D01*
X0306680Y0370606D01*
X0306697Y0370550D01*
X0306710Y0370493D01*
X0306719Y0370436D01*
X0306725Y0370377D01*
X0306727Y0370319D01*
X0306725Y0370261D01*
X0306719Y0370202D01*
X0306710Y0370145D01*
X0306697Y0370088D01*
X0306680Y0370032D01*
X0306659Y0369977D01*
X0306635Y0369924D01*
X0306607Y0369872D01*
X0306576Y0369822D01*
X0306542Y0369775D01*
X0306505Y0369730D01*
X0306465Y0369687D01*
X0306422Y0369647D01*
X0306377Y0369610D01*
X0306330Y0369576D01*
X0306280Y0369545D01*
X0306228Y0369517D01*
X0306175Y0369493D01*
X0306120Y0369472D01*
X0306064Y0369455D01*
X0306007Y0369442D01*
X0305950Y0369433D01*
X0305891Y0369427D01*
X0305833Y0369425D01*
X0327558Y0361925D02*
X0328708Y0361925D01*
X0328766Y0361927D01*
X0328825Y0361933D01*
X0328882Y0361942D01*
X0328939Y0361955D01*
X0328995Y0361972D01*
X0329050Y0361993D01*
X0329103Y0362017D01*
X0329155Y0362045D01*
X0329205Y0362076D01*
X0329252Y0362110D01*
X0329297Y0362147D01*
X0329340Y0362187D01*
X0329380Y0362230D01*
X0329417Y0362275D01*
X0329451Y0362322D01*
X0329482Y0362372D01*
X0329510Y0362424D01*
X0329534Y0362477D01*
X0329555Y0362532D01*
X0329572Y0362588D01*
X0329585Y0362645D01*
X0329594Y0362702D01*
X0329600Y0362761D01*
X0329602Y0362819D01*
X0329600Y0362877D01*
X0329594Y0362936D01*
X0329585Y0362993D01*
X0329572Y0363050D01*
X0329555Y0363106D01*
X0329534Y0363161D01*
X0329510Y0363214D01*
X0329482Y0363266D01*
X0329451Y0363316D01*
X0329417Y0363363D01*
X0329380Y0363408D01*
X0329340Y0363451D01*
X0329297Y0363491D01*
X0329252Y0363528D01*
X0329205Y0363562D01*
X0329155Y0363593D01*
X0329103Y0363621D01*
X0329050Y0363645D01*
X0328995Y0363666D01*
X0328939Y0363683D01*
X0328882Y0363696D01*
X0328825Y0363705D01*
X0328766Y0363711D01*
X0328708Y0363713D01*
X0337911Y0366525D02*
X0338166Y0366525D01*
X0338221Y0366523D01*
X0338275Y0366517D01*
X0338329Y0366507D01*
X0338382Y0366494D01*
X0338434Y0366477D01*
X0338485Y0366456D01*
X0338534Y0366431D01*
X0338581Y0366403D01*
X0338626Y0366372D01*
X0338668Y0366338D01*
X0338708Y0366300D01*
X0338746Y0366260D01*
X0338780Y0366218D01*
X0338811Y0366173D01*
X0338839Y0366126D01*
X0338864Y0366077D01*
X0338885Y0366026D01*
X0338902Y0365974D01*
X0338915Y0365921D01*
X0338925Y0365867D01*
X0338931Y0365813D01*
X0338933Y0365758D01*
X0348154Y0373769D02*
X0348410Y0373769D01*
X0348410Y0374025D01*
X0348154Y0374025D01*
X0348154Y0373769D01*
X0375349Y0369425D02*
X0375479Y0369429D01*
X0375610Y0369437D01*
X0375739Y0369449D01*
X0375869Y0369464D01*
X0375998Y0369484D01*
X0376126Y0369507D01*
X0376254Y0369534D01*
X0376381Y0369565D01*
X0376506Y0369600D01*
X0376631Y0369639D01*
X0376754Y0369681D01*
X0396902Y0369425D02*
X0397157Y0369425D01*
X0397212Y0369427D01*
X0397266Y0369433D01*
X0397320Y0369443D01*
X0397373Y0369456D01*
X0397425Y0369473D01*
X0397476Y0369494D01*
X0397525Y0369519D01*
X0397572Y0369547D01*
X0397617Y0369578D01*
X0397659Y0369612D01*
X0397699Y0369650D01*
X0397737Y0369690D01*
X0397771Y0369732D01*
X0397802Y0369777D01*
X0397830Y0369824D01*
X0397855Y0369873D01*
X0397876Y0369924D01*
X0397893Y0369976D01*
X0397906Y0370029D01*
X0397916Y0370083D01*
X0397922Y0370137D01*
X0397924Y0370192D01*
X0397924Y0374025D01*
X0398435Y0372492D02*
X0396902Y0372492D01*
D11*
X0330500Y0266575D02*
X0325500Y0266575D01*
X0422500Y0266575D02*
X0427500Y0266575D01*
X0397500Y0426425D02*
X0392500Y0426425D01*
X0300500Y0426425D02*
X0295500Y0426425D01*
M02*
