G75*
%MOIN*%
%OFA0B0*%
%FSLAX25Y25*%
%IPPOS*%
%LPD*%
%AMOC8*
5,1,8,0,0,1.08239X$1,22.5*
%
%ADD10R,0.08280X0.06312*%
%ADD11R,0.06800X0.09800*%
%ADD12R,0.04331X0.03150*%
%ADD13R,0.08280X0.09265*%
%ADD14R,0.05918X0.05524*%
%ADD15R,0.06115X0.02178*%
%ADD16R,0.05131X0.02375*%
%ADD17R,0.03150X0.04331*%
%ADD18R,0.05600X0.09600*%
%ADD19R,0.14973X0.09461*%
%ADD20C,0.08200*%
%ADD21R,0.06706X0.05918*%
%ADD22R,0.05918X0.06706*%
%ADD23R,0.05131X0.04737*%
%ADD24R,0.01863X0.06706*%
%ADD25R,0.06706X0.01863*%
%ADD26R,0.04737X0.05131*%
%ADD27R,0.14186X0.08280*%
%ADD28R,0.08280X0.14186*%
%ADD29C,0.03900*%
%ADD30C,0.04737*%
%ADD31C,0.10150*%
%ADD32R,0.05524X0.08674*%
%ADD33C,0.17400*%
D10*
G36*
X0387887Y0361128D02*
X0383747Y0353958D01*
X0378281Y0357114D01*
X0382421Y0364284D01*
X0387887Y0361128D01*
G37*
G36*
X0396070Y0356404D02*
X0391930Y0349234D01*
X0386464Y0352390D01*
X0390604Y0359560D01*
X0396070Y0356404D01*
G37*
G36*
X0404731Y0371406D02*
X0400591Y0364236D01*
X0395125Y0367392D01*
X0399265Y0374562D01*
X0404731Y0371406D01*
G37*
G36*
X0396548Y0376130D02*
X0392408Y0368960D01*
X0386942Y0372116D01*
X0391082Y0379286D01*
X0396548Y0376130D01*
G37*
D11*
X0249500Y0374100D03*
X0231500Y0374100D03*
X0231500Y0400100D03*
X0249500Y0400100D03*
X0249500Y0320000D03*
X0231500Y0320000D03*
X0231500Y0294000D03*
X0249500Y0294000D03*
D12*
X0428382Y0312547D03*
X0428382Y0318453D03*
X0438618Y0318453D03*
X0438618Y0312547D03*
D13*
X0437831Y0331437D03*
X0437831Y0348563D03*
D14*
X0425823Y0349843D03*
X0425823Y0330157D03*
D15*
X0427201Y0334882D03*
X0427201Y0337441D03*
X0427201Y0340000D03*
X0427201Y0342559D03*
X0427201Y0345118D03*
D16*
X0432358Y0285839D03*
X0432358Y0283280D03*
X0432358Y0280720D03*
X0432358Y0278161D03*
X0414642Y0278161D03*
X0414642Y0280720D03*
X0414642Y0283280D03*
X0414642Y0285839D03*
X0332858Y0285839D03*
X0332858Y0283280D03*
X0332858Y0280720D03*
X0332858Y0278161D03*
X0315142Y0278161D03*
X0315142Y0280720D03*
X0315142Y0283280D03*
X0315142Y0285839D03*
X0415642Y0406661D03*
X0415642Y0409220D03*
X0415642Y0411780D03*
X0415642Y0414339D03*
X0433358Y0414339D03*
X0433358Y0411780D03*
X0433358Y0409220D03*
X0433358Y0406661D03*
X0338858Y0407161D03*
X0338858Y0409720D03*
X0338858Y0412280D03*
X0338858Y0414839D03*
X0321142Y0414839D03*
X0321142Y0412280D03*
X0321142Y0409720D03*
X0321142Y0407161D03*
D17*
X0307153Y0404882D03*
X0301247Y0404882D03*
X0301247Y0415118D03*
X0307153Y0415118D03*
X0398547Y0415418D03*
X0404453Y0415418D03*
X0404453Y0405182D03*
X0398547Y0405182D03*
X0399047Y0287918D03*
X0404953Y0287918D03*
X0404953Y0277682D03*
X0399047Y0277682D03*
X0306953Y0277382D03*
X0301047Y0277382D03*
X0301047Y0287618D03*
X0306953Y0287618D03*
D18*
X0417400Y0362800D03*
X0426500Y0362800D03*
X0435600Y0362800D03*
D19*
X0426500Y0387201D03*
D20*
X0425000Y0432000D03*
X0425000Y0442000D03*
X0415000Y0442000D03*
X0405000Y0442000D03*
X0405000Y0432000D03*
X0415000Y0432000D03*
X0395000Y0432000D03*
X0395000Y0442000D03*
X0328000Y0442000D03*
X0328000Y0432000D03*
X0318000Y0432000D03*
X0308000Y0432000D03*
X0308000Y0442000D03*
X0318000Y0442000D03*
X0298000Y0442000D03*
X0298000Y0432000D03*
X0270500Y0432000D03*
X0270500Y0422000D03*
X0260500Y0422000D03*
X0260500Y0432000D03*
X0260500Y0442000D03*
X0270500Y0442000D03*
X0270500Y0412000D03*
X0270500Y0402000D03*
X0260500Y0402000D03*
X0260500Y0412000D03*
X0260500Y0392000D03*
X0260500Y0382000D03*
X0270500Y0382000D03*
X0270500Y0392000D03*
X0270500Y0372000D03*
X0270500Y0362000D03*
X0260500Y0362000D03*
X0260500Y0372000D03*
X0260500Y0352000D03*
X0260500Y0342000D03*
X0270500Y0342000D03*
X0270500Y0352000D03*
X0270500Y0332000D03*
X0270500Y0322000D03*
X0270500Y0312000D03*
X0260500Y0312000D03*
X0260500Y0322000D03*
X0260500Y0332000D03*
X0260500Y0302000D03*
X0260500Y0292000D03*
X0270500Y0292000D03*
X0270500Y0302000D03*
X0270500Y0282000D03*
X0270500Y0272000D03*
X0260500Y0272000D03*
X0260500Y0282000D03*
X0260500Y0262000D03*
X0260500Y0252000D03*
X0270500Y0252000D03*
X0270500Y0262000D03*
X0298000Y0261000D03*
X0298000Y0251000D03*
X0308000Y0251000D03*
X0308000Y0261000D03*
X0318000Y0261000D03*
X0318000Y0251000D03*
X0328000Y0251000D03*
X0328000Y0261000D03*
X0395000Y0261000D03*
X0395000Y0251000D03*
X0405000Y0251000D03*
X0405000Y0261000D03*
X0415000Y0261000D03*
X0415000Y0251000D03*
X0425000Y0251000D03*
X0425000Y0261000D03*
D21*
X0440000Y0278260D03*
X0440000Y0285740D03*
X0342000Y0285740D03*
X0342000Y0278260D03*
X0334475Y0384333D03*
X0334475Y0391813D03*
X0345765Y0407970D03*
X0345765Y0415450D03*
X0412800Y0393240D03*
X0412800Y0385760D03*
X0440200Y0385960D03*
X0440200Y0393440D03*
X0440500Y0407260D03*
X0440500Y0414740D03*
D22*
X0390240Y0415500D03*
X0390240Y0408500D03*
X0390240Y0401500D03*
X0382760Y0401500D03*
X0382760Y0408500D03*
X0382760Y0415500D03*
X0372230Y0423775D03*
X0364750Y0423775D03*
X0358480Y0423795D03*
X0351000Y0423795D03*
X0365260Y0393000D03*
X0365236Y0385855D03*
X0365236Y0378784D03*
X0372717Y0378784D03*
X0372717Y0385855D03*
X0372740Y0393000D03*
X0376399Y0347768D03*
X0368918Y0347768D03*
X0381167Y0314998D03*
X0388647Y0314998D03*
X0390740Y0292500D03*
X0390740Y0285500D03*
X0390740Y0278500D03*
X0383260Y0278500D03*
X0383260Y0285500D03*
X0383260Y0292500D03*
X0372230Y0268835D03*
X0364750Y0268835D03*
X0358530Y0268835D03*
X0351050Y0268835D03*
X0292740Y0277500D03*
X0292740Y0284500D03*
X0292740Y0291500D03*
X0285260Y0291500D03*
X0285260Y0284500D03*
X0285260Y0277500D03*
X0244240Y0274000D03*
X0244240Y0266200D03*
X0236760Y0266200D03*
X0236760Y0274000D03*
X0236760Y0282000D03*
X0244240Y0282000D03*
X0244240Y0332000D03*
X0236760Y0332000D03*
X0236760Y0363000D03*
X0244240Y0363000D03*
X0285260Y0401500D03*
X0285260Y0408500D03*
X0285260Y0415500D03*
X0292740Y0415500D03*
X0292740Y0408500D03*
X0292740Y0401500D03*
X0412260Y0319000D03*
X0412260Y0312000D03*
X0419740Y0312000D03*
X0419740Y0319000D03*
X0419740Y0305000D03*
X0412260Y0305000D03*
D23*
X0373884Y0322312D03*
X0367191Y0322312D03*
X0367191Y0331504D03*
X0373884Y0331504D03*
X0373884Y0340697D03*
X0367191Y0340697D03*
X0367191Y0355546D03*
X0367191Y0361910D03*
X0373884Y0361910D03*
X0373884Y0355546D03*
G36*
X0400481Y0355394D02*
X0396039Y0357959D01*
X0398407Y0362060D01*
X0402849Y0359495D01*
X0400481Y0355394D01*
G37*
G36*
X0406277Y0352047D02*
X0401835Y0354612D01*
X0404203Y0358713D01*
X0408645Y0356148D01*
X0406277Y0352047D01*
G37*
G36*
X0395931Y0376591D02*
X0398496Y0381033D01*
X0402597Y0378665D01*
X0400032Y0374223D01*
X0395931Y0376591D01*
G37*
G36*
X0399278Y0382387D02*
X0401843Y0386829D01*
X0405944Y0384461D01*
X0403379Y0380019D01*
X0399278Y0382387D01*
G37*
X0335859Y0305404D03*
X0329166Y0305404D03*
X0288617Y0343525D03*
X0281924Y0343525D03*
D24*
X0303075Y0315135D03*
X0305043Y0315135D03*
X0307012Y0315135D03*
X0308980Y0315135D03*
X0310949Y0315135D03*
X0312917Y0315135D03*
X0314886Y0315135D03*
X0316854Y0315135D03*
X0318823Y0315135D03*
X0320791Y0315135D03*
X0322760Y0315135D03*
X0324728Y0315135D03*
X0326697Y0315135D03*
X0328665Y0315135D03*
X0330634Y0315135D03*
X0332602Y0315135D03*
X0334571Y0315135D03*
X0336539Y0315135D03*
X0338508Y0315135D03*
X0340476Y0315135D03*
X0342445Y0315135D03*
X0344413Y0315135D03*
X0346382Y0315135D03*
X0348350Y0315135D03*
X0350319Y0315135D03*
X0350319Y0376158D03*
X0348350Y0376158D03*
X0346382Y0376158D03*
X0344413Y0376158D03*
X0342445Y0376158D03*
X0340476Y0376158D03*
X0338508Y0376158D03*
X0336539Y0376158D03*
X0334571Y0376158D03*
X0332602Y0376158D03*
X0330634Y0376158D03*
X0328665Y0376158D03*
X0326697Y0376158D03*
X0324728Y0376158D03*
X0322760Y0376158D03*
X0320791Y0376158D03*
X0318823Y0376158D03*
X0316854Y0376158D03*
X0314886Y0376158D03*
X0312917Y0376158D03*
X0310949Y0376158D03*
X0308980Y0376158D03*
X0307012Y0376158D03*
X0305043Y0376158D03*
X0303075Y0376158D03*
D25*
X0296185Y0369269D03*
X0296185Y0367300D03*
X0296185Y0365331D03*
X0296185Y0363363D03*
X0296185Y0361394D03*
X0296185Y0359426D03*
X0296185Y0357457D03*
X0296185Y0355489D03*
X0296185Y0353520D03*
X0296185Y0351552D03*
X0296185Y0349583D03*
X0296185Y0347615D03*
X0296185Y0345646D03*
X0296185Y0343678D03*
X0296185Y0341709D03*
X0296185Y0339741D03*
X0296185Y0337772D03*
X0296185Y0335804D03*
X0296185Y0333835D03*
X0296185Y0331867D03*
X0296185Y0329898D03*
X0296185Y0327930D03*
X0296185Y0325961D03*
X0296185Y0323993D03*
X0296185Y0322024D03*
X0357209Y0322024D03*
X0357209Y0323993D03*
X0357209Y0325961D03*
X0357209Y0327930D03*
X0357209Y0329898D03*
X0357209Y0331867D03*
X0357209Y0333835D03*
X0357209Y0335804D03*
X0357209Y0337772D03*
X0357209Y0339741D03*
X0357209Y0341709D03*
X0357209Y0343678D03*
X0357209Y0345646D03*
X0357209Y0347615D03*
X0357209Y0349583D03*
X0357209Y0351552D03*
X0357209Y0353520D03*
X0357209Y0355489D03*
X0357209Y0357457D03*
X0357209Y0359426D03*
X0357209Y0361394D03*
X0357209Y0363363D03*
X0357209Y0365331D03*
X0357209Y0367300D03*
X0357209Y0369269D03*
D26*
X0318211Y0384726D03*
X0311847Y0384726D03*
X0305483Y0384726D03*
X0305483Y0391419D03*
X0311847Y0391419D03*
X0318211Y0391419D03*
X0285738Y0372076D03*
X0285738Y0365383D03*
D27*
X0384846Y0338620D03*
X0384846Y0323265D03*
D28*
X0357805Y0388646D03*
X0342451Y0388646D03*
D29*
X0359322Y0301581D03*
X0359322Y0296581D03*
X0359322Y0291581D03*
X0359322Y0286581D03*
X0359322Y0281581D03*
X0364322Y0281581D03*
X0364322Y0286581D03*
X0364322Y0291581D03*
X0364322Y0296581D03*
X0364322Y0301581D03*
D30*
X0361822Y0306581D03*
X0365822Y0276581D03*
X0357822Y0276581D03*
D31*
X0351822Y0284081D03*
X0371822Y0284081D03*
X0371822Y0306581D03*
X0351822Y0306581D03*
D32*
X0383281Y0303760D03*
X0395879Y0303760D03*
X0368289Y0412830D03*
X0355691Y0412830D03*
D33*
X0240000Y0250000D03*
X0362000Y0250000D03*
X0362000Y0443000D03*
X0240000Y0443000D03*
M02*
